<svg width="30" height="30" fill="none" xmlns="http://www.w3.org/2000/svg"><g clip-path="url(#clip0_76_6581)" stroke="#0072DE" stroke-width="1.5" stroke-linecap="round" stroke-linejoin="round"><path d="M20.575 19.583h4.842m-10.785-11.8l-.385-.521a2.502 2.502 0 00-2.01-1.014h-2.43c-.647 0-1.269.252-1.735.7l-3.112 3a1.697 1.697 0 01-.387.279m.227 8.19h2.1c.505 0 .983.23 1.3.623l1.805 2.248a3.334 3.334 0 004.13.875l5.457-2.821a3.333 3.333 0 001.101-5.005L17.947 10.8"/><path d="M25.43 10.23a1.632 1.632 0 01-.388-.28l-3.112-3a2.506 2.506 0 00-1.735-.7h-3.012a2.5 2.5 0 00-1.79.755l-4.158 4.263a2.17 2.17 0 002.798 3.292l4.717-3.308M0 9h1.667c.92 0 1.666.747 1.666 1.667v10c0 .92-.746 1.666-1.666 1.666H0"/><path d="M28.75 8.75h-1.667c-.92 0-1.666.747-1.666 1.667v10c0 .92.746 1.666 1.666 1.666h1.667"/></g><defs><clipPath id="clip0_76_6581"><rect width="30" height="30" rx="15" fill="#fff"/></clipPath></defs></svg>