<svg width="30" height="22" fill="none" xmlns="http://www.w3.org/2000/svg"><path d="M5.39 9.525a1.022 1.022 0 110 2.044H1.173a1.022 1.022 0 110-2.044H5.39z" fill="#0072DE" stroke="#EBF4FD" stroke-width=".3"/><path d="M10.688 4.838h.08l.044-.067A10.395 10.395 0 0119.453.15c5.733 0 10.397 4.664 10.397 10.397a1.022 1.022 0 11-2.044 0c0-4.606-3.747-8.353-8.353-8.353S11.1 5.94 11.1 10.547s3.747 8.353 8.353 8.353c2.227 0 4.324-.87 5.904-2.45a1.022 1.022 0 011.445 0l.106-.106-.106.106c.399.4.399 1.046 0 1.445a10.325 10.325 0 01-7.349 3.049 10.395 10.395 0 01-8.64-4.621l-.045-.067H3.516a1.022 1.022 0 110-2.043h6.206l-.071-.2a10.348 10.348 0 01-.595-3.466c0-1.215.21-2.381.595-3.466l.07-.2H3.517a1.022 1.022 0 110-2.043h7.172z" fill="#0072DE" stroke="#EBF4FD" stroke-width=".3"/><path d="M20.475 9.375v.15h3.666a1.022 1.022 0 110 2.044h-4.688a1.022 1.022 0 01-1.022-1.022V5.859a1.022 1.022 0 112.044 0v3.516z" fill="#0072DE" stroke="#EBF4FD" stroke-width=".3"/></svg>