<svg width="24" height="24" fill="none" xmlns="http://www.w3.org/2000/svg"><g clip-path="url(#clip0_110_7067)" fill="#0080F7"><path d="M23.328 3.124H3.833a.567.567 0 00-.567.567v19.742c0 .313.254.567.567.567h15.092a.567.567 0 00.568-.567v-5.04h3.835a.567.567 0 00.567-.567V3.69a.567.567 0 00-.567-.567zm-.568 14.134h-3.835a.567.567 0 00-.567.568v5.04H4.401V4.258h18.36v13zM1.9 4.159a.468.468 0 000-.934H.61a.469.469 0 00-.468.466c0 .257.21.468.467.468h.174v18.806H.609a.469.469 0 00-.467.468c0 .257.21.467.467.467h1.292c.257 0 .467-.21.467-.467a.468.468 0 00-.467-.468h-.187V4.16H1.9zm1.933-1.933c.257 0 .468-.21.468-.467v-.187h18.486v.187c0 .257.21.467.467.467s.467-.21.467-.467V.467A.469.469 0 0023.255 0a.469.469 0 00-.467.467v.174H4.301V.467A.469.469 0 003.833 0a.469.469 0 00-.467.467V1.76c0 .257.207.467.467.467z"/><path d="M9.464 16.317v-3.578c.35-.44.707-.667 1.054-.667.217 0 .364.06.448.183.066.097.143.31.143.764v3.298H12.3v-3.578c.354-.444.711-.667 1.062-.667.213 0 .357.06.44.183.067.097.144.31.144.764v3.298h1.195v-3.33c0-1.613-.898-1.95-1.655-1.95-.24 0-.485.057-.732.167-.207.093-.437.28-.7.567-.258-.487-.728-.734-1.406-.734-.427 0-.824.16-1.188.48v-.37H8.266v5.173h1.198v-.003zm7.679-6.692h-1.291c.073-.07.177-.163.323-.287.374-.31.618-.55.748-.73.14-.198.214-.424.214-.681 0-.288-.1-.531-.294-.725-.194-.193-.467-.29-.814-.29-.324 0-.595.093-.798.28-.204.187-.32.438-.347.745l-.014.18h.738l.01-.154c.01-.143.053-.247.127-.313a.404.404 0 01.277-.1c.13 0 .224.03.287.093.063.063.093.153.093.274 0 .15-.043.277-.133.397-.103.133-.304.323-.597.557-.321.257-.538.47-.661.654a1.08 1.08 0 00-.2.621v.167h2.332v-.688z"/></g><defs><clipPath id="clip0_110_7067"><path fill="#fff" d="M0 0h24v24H0z"/></clipPath></defs></svg>