<svg width="50" height="50" fill="none" xmlns="http://www.w3.org/2000/svg"><path d="M41.872 37.575a.733.733 0 000 1.465h.008a.73.73 0 00.728-.732.736.736 0 00-.736-.733zm-24.267 0a.732.732 0 000 1.465h.007a.73.73 0 00.729-.732.736.736 0 00-.736-.733z" fill="#0080F7"/><path d="M49.237 29.428l-2.342-1.675-.034-7.082c-.005-1.091-.819-1.883-1.934-1.883h-5.685a1.348 1.348 0 00-.244-1.06 1.326 1.326 0 00-1.066-.506h-5.104a.732.732 0 100 1.465h4.932l-5.061 18.888H21.576c.015-.733-.194-1.42-.612-1.965-.576-.752-1.472-1.166-2.52-1.166-1.886 0-3.757 1.337-4.494 3.131h-3.22l1.432-5.34a.732.732 0 00-1.415-.38l-1.468 5.48c-.116.433-.038.87.214 1.199.247.322.636.506 1.066.506h3.074c-.015.734.194 1.421.612 1.966.576.752 1.472 1.166 2.52 1.166 1.886 0 3.757-1.338 4.494-3.132H37.9c-.015.734.193 1.421.61 1.966.578.752 1.473 1.166 2.522 1.166 1.885 0 3.756-1.338 4.493-3.132h.26c1.193 0 2.376-.926 2.692-2.108l1.441-5.376c.228-.85-.034-1.665-.682-2.128zm-29.209 8.69c-.376 1.403-1.87 2.589-3.263 2.589-.583 0-1.065-.21-1.358-.593-.316-.41-.396-.984-.226-1.617.376-1.403 1.87-2.588 3.263-2.588.582 0 1.065.21 1.358.592.315.411.396.985.226 1.617zm25.4-10.72h-4.743c-.124 0-.292-.026-.39-.152-.085-.111-.103-.29-.05-.49l.63-2.35c.146-.544.743-1.022 1.278-1.022h3.256l.02 4.015zm-1.132 10.72c-.376 1.403-1.87 2.589-3.263 2.589-.583 0-1.066-.21-1.359-.593-.315-.41-.395-.984-.226-1.617.376-1.403 1.87-2.588 3.263-2.588.583 0 1.065.21 1.358.592.316.411.396.985.227 1.617zm2.767-1.565c-.14.525-.7.987-1.22 1.02.014-.733-.194-1.42-.612-1.963-.576-.752-1.471-1.166-2.52-1.166-1.885 0-3.757 1.338-4.494 3.132h-4.002l1.286-4.798h8.832a.732.732 0 000-1.465h-8.44l2.964-11.06h6.07c.213 0 .467.074.469.425l.006 1.241h-3.25c-1.192 0-2.375.927-2.692 2.109l-.63 2.348c-.172.644-.061 1.286.303 1.762.354.461.92.726 1.551.726h5.245l2.456 1.756c.209.149.144.464.119.557l-.037.136h-1.003a.732.732 0 000 1.465h.61l-1.01 3.775z" fill="#0080F7"/><path d="M18.737 31.212c6.447 0 11.692-5.245 11.692-11.692S25.184 7.828 18.737 7.828 7.045 13.073 7.045 19.52s5.245 11.692 11.692 11.692zm0-21.919c5.64 0 10.227 4.588 10.227 10.227 0 5.64-4.587 10.227-10.227 10.227-5.639 0-10.227-4.587-10.227-10.227 0-5.639 4.588-10.227 10.227-10.227z" fill="#0080F7"/><path d="M15.606 23.384a.73.73 0 00.518-.215l1.591-1.591a2.3 2.3 0 003.08-3.08l3.94-3.94a.732.732 0 10-1.036-1.035l-3.94 3.94a2.3 2.3 0 00-3.08 3.08l-1.59 1.59a.732.732 0 00.517 1.25zm3.131-4.697a.834.834 0 010 1.666.834.834 0 010-1.666zm0-5.48a.732.732 0 00.733-.732v-.783a.732.732 0 10-1.465 0v.783c0 .405.328.732.732.732zm0 12.626a.732.732 0 00-.732.733v.782a.732.732 0 101.465 0v-.782a.732.732 0 00-.733-.733zm7.046-5.58h.782a.732.732 0 100-1.465h-.782a.732.732 0 000 1.465zm-13.359-.733a.732.732 0 00-.732-.732h-.783a.732.732 0 000 1.465h.783a.732.732 0 00.732-.733zM8.56 28.964H.733a.732.732 0 100 1.465h7.829a.732.732 0 100-1.465zm-.782 3.132H3.081a.732.732 0 100 1.465h4.697a.732.732 0 100-1.465zm-.783 3.131H5.429a.733.733 0 000 1.465h1.566a.732.732 0 000-1.465z" fill="#0080F7"/></svg>