<svg width="50" height="50" fill="none" xmlns="http://www.w3.org/2000/svg"><g clip-path="url(#clip0_0_8087)" fill="#0080F7"><path d="M28.235 32.357H26.76l-3.454-1.382v-1.798a8.828 8.828 0 004.014-6.68h.916a2.353 2.353 0 002.35-2.35V16.91a2.353 2.353 0 00-2.35-2.35h-.885v-1.695a6.4 6.4 0 00-3.47-5.683c.155-.515.234-1.05.234-1.597A5.592 5.592 0 0018.528 0c-.895 0-1.785.217-2.574.628a.732.732 0 10.675 1.3 4.126 4.126 0 015.878 4.736 6.384 6.384 0 00-1.552-.193h-4.853c-.536 0-1.056.067-1.553.192a4.12 4.12 0 01-.142-1.077c0-.668.155-1.306.46-1.894a.732.732 0 10-1.3-.674 5.601 5.601 0 00-.391 4.165 6.4 6.4 0 00-3.47 5.683v1.694h-.885a2.353 2.353 0 00-2.35 2.35v3.237a2.353 2.353 0 002.35 2.35h.917a8.829 8.829 0 004.013 6.68v1.798l-3.453 1.382H8.82c-3.972 0-7.203 3.232-7.203 7.203v8.899c0 .85.691 1.54 1.541 1.54h.946a.732.732 0 100-1.464h-.946a.077.077 0 01-.076-.076V39.56a5.745 5.745 0 015.738-5.738h1.122l.67 1.675-2.133 4.667a1.536 1.536 0 00.712 2.019l1.09.545a.068.068 0 01.043.068.068.068 0 01-.043.069l-.784.392a1.546 1.546 0 00-.833 1.132c-.079.487.083.987.432 1.337l2.81 2.81H7.033a.732.732 0 100 1.464h26.864c.85 0 1.541-.691 1.541-1.541V39.56c0-3.972-3.232-7.203-7.204-7.203zM26.12 44.175l.785.392c.009.005.035.018.041.056a.071.071 0 01-.021.067l-3.846 3.845h-1.323l.633-7.17a1.529 1.529 0 001.07.06c.446-.139.8-.467.974-.9l1.26-3.15 1.552 3.398a.076.076 0 01-.035.1l-1.09.545a1.533 1.533 0 00-.852 1.378c0 .588.327 1.116.852 1.379zm-3.047-4.194a.072.072 0 01-.048.044.071.071 0 01-.066-.009l-.787-.525-.005-.003-2.64-1.76 3.343-5.35 2.797 1.12-2.594 6.483zm6.049-23.07v3.236a.886.886 0 01-.886.885h-.885v-5.006h.885c.489 0 .886.397.886.885zM16.1 7.936h4.854a4.936 4.936 0 014.93 4.93v1.585a2.508 2.508 0 01-1.77-2.394V10.44a.732.732 0 00-1.465 0 4.126 4.126 0 01-4.122 4.12h-4.853a3.95 3.95 0 00-2.503.892v-2.586a4.935 4.935 0 014.93-4.93zm-8.165 12.21v-3.235c0-.488.397-.886.885-.886h.886v5.007H8.82a.887.887 0 01-.885-.885zm3.236 1.619v-3.239a2.506 2.506 0 012.503-2.5h4.853a5.58 5.58 0 004.5-2.28 3.98 3.98 0 002.857 2.21v5.809c0 4.056-3.3 7.356-7.357 7.356-4.056 0-7.356-3.3-7.356-7.356zm7.356 8.821c1.171 0 2.29-.23 3.313-.646v1.321l-3.313 5.3-3.312-5.3v-1.32a8.774 8.774 0 003.312.645zm-4.34 1.793l3.342 5.35-2.642 1.76-.004.003-.786.524c-.008.005-.03.02-.065.01a.071.071 0 01-.048-.045l-2.594-6.484 2.796-1.118zm-4.055 12.31a.072.072 0 01-.022-.066c.007-.038.033-.051.042-.056l.784-.392c.526-.263.853-.791.853-1.379 0-.587-.327-1.116-.852-1.378l-1.09-.545a.076.076 0 01-.036-.1l1.553-3.397 1.26 3.149a1.535 1.535 0 001.432.97c.212 0 .421-.045.616-.131l.66 7.171h-1.355l-3.845-3.845zm6.67 3.846l-.741-8.068 2.466-1.644 2.468 1.645-.711 8.067h-3.482zm17.095 0H25.15l2.81-2.81a1.542 1.542 0 00-.401-2.468l-.785-.392c-.013-.007-.042-.022-.042-.069 0-.047.029-.062.042-.068l1.09-.545a1.536 1.536 0 00.713-2.02l-2.133-4.667.67-1.674h1.122a5.745 5.745 0 015.738 5.738v8.898a.077.077 0 01-.076.077z"/><path d="M16.025 20.146v-.808a.732.732 0 10-1.465 0v.808a.732.732 0 101.465 0zm5.739.733a.732.732 0 00.733-.733v-.808a.732.732 0 10-1.465 0v.808c0 .405.328.733.732.733zm-.531 3.899a.732.732 0 00-1.268-.734 1.702 1.702 0 01-1.468.848 1.702 1.702 0 01-1.468-.848.732.732 0 00-1.268.733 3.17 3.17 0 002.736 1.58 3.17 3.17 0 002.736-1.58zM39.56 8.09a2.353 2.353 0 00-2.35 2.35 2.353 2.353 0 002.35 2.35 2.353 2.353 0 002.35-2.35 2.353 2.353 0 00-2.35-2.35zm0 3.235a.886.886 0 010-1.77.886.886 0 010 1.77z"/><path d="M47.215 7.958l-.987-.247-.024-.057.523-.872a1.54 1.54 0 00-.231-1.883L45.1 3.504a1.54 1.54 0 00-1.883-.232l-.872.524-.057-.024-.247-.987a1.54 1.54 0 00-1.495-1.167h-1.973c-.709 0-1.323.48-1.495 1.167l-.247.987-.057.024-.872-.524a1.54 1.54 0 00-1.883.232L32.625 4.9a1.54 1.54 0 00-.232 1.883l.524.872-.024.057-.987.247a1.54 1.54 0 00-1.167 1.495v1.973c0 .708.48 1.323 1.167 1.495l.987.247.024.057-.524.872a1.54 1.54 0 00.232 1.883l1.395 1.395a1.54 1.54 0 001.883.231l.872-.523.057.024.247.986a1.54 1.54 0 001.495 1.168h1.973a1.54 1.54 0 001.495-1.168l.246-.986.058-.024.872.523a1.54 1.54 0 001.883-.232l1.395-1.394a1.54 1.54 0 00.231-1.883l-.523-.872.024-.057.986-.247a1.54 1.54 0 001.168-1.495V9.453a1.54 1.54 0 00-1.167-1.495zm-.298 3.468a.076.076 0 01-.058.074l-1.359.34a.733.733 0 00-.515.471 5.74 5.74 0 01-.264.641.732.732 0 00.03.698l.72 1.2a.076.076 0 01-.011.094l-1.395 1.395a.076.076 0 01-.093.011l-1.2-.72a.733.733 0 00-.699-.03 5.715 5.715 0 01-.64.264.733.733 0 00-.472.515l-.34 1.36a.076.076 0 01-.074.057h-1.973a.076.076 0 01-.074-.058l-.34-1.359a.733.733 0 00-.471-.515 5.705 5.705 0 01-.641-.264.733.733 0 00-.698.03l-1.2.72a.076.076 0 01-.094-.011l-1.395-1.395a.076.076 0 01-.011-.094l.72-1.2a.732.732 0 00.03-.698 5.72 5.72 0 01-.264-.64.733.733 0 00-.515-.472l-1.36-.34a.076.076 0 01-.057-.074V9.453c0-.035.023-.065.058-.074l1.359-.34a.733.733 0 00.514-.471c.078-.224.167-.44.265-.641a.732.732 0 00-.03-.698l-.72-1.2a.076.076 0 01.011-.094l1.395-1.395a.077.077 0 01.093-.011l1.2.72a.732.732 0 00.699.03 5.75 5.75 0 01.64-.264.733.733 0 00.472-.515l.34-1.36a.076.076 0 01.074-.057h1.973c.035 0 .065.024.074.058l.34 1.359c.06.24.237.434.471.515.224.077.44.166.64.264a.733.733 0 00.699-.03l1.2-.72a.076.076 0 01.094.011l1.395 1.395c.024.025.03.063.011.093l-.72 1.2a.732.732 0 00-.03.699c.098.201.187.417.264.64a.73.73 0 00.515.472l1.359.34a.076.076 0 01.058.074v1.973z"/></g><defs><clipPath id="clip0_0_8087"><path fill="#fff" d="M0 0h50v50H0z"/></clipPath></defs></svg>