<svg width="24" height="24" fill="none" xmlns="http://www.w3.org/2000/svg"><path d="M15.122 16.262l-4.162-1.43v-.851a4.558 4.558 0 001.823-3.064h.033a1.23 1.23 0 001.228-1.229c0-.4-.192-.756-.49-.98a2.8 2.8 0 00.014-.287V6.539A4.764 4.764 0 008.81 1.78H7.72a4.764 4.764 0 00-4.758 4.76v1.882c0 .095.005.19.014.286-.298.224-.492.58-.492.981a1.23 1.23 0 001.229 1.229h.033a4.56 4.56 0 001.823 3.063v.852l-4.162 1.43A2.057 2.057 0 000 18.232v2.94a1.05 1.05 0 001.05 1.048h14.43a1.05 1.05 0 001.05-1.049v-2.939c0-.904-.553-1.677-1.408-1.97zm-8.136.711a2.8 2.8 0 001.278.302c.462 0 .897-.107 1.279-.302l-1.279 3.718-1.278-3.718zm-.967-.834l.06.082a.374.374 0 00-.036.32l.497 1.447H5.455l.564-1.849zm4.466.402a.376.376 0 00-.036-.32l.06-.081.564 1.848H9.988l.498-1.447zM3.713 6.54A4.013 4.013 0 017.72 2.531h1.09a4.013 4.013 0 014.008 4.008v1.882l-.001.04h-.348a.22.22 0 01-.22-.22V6.995a.724.724 0 00-.494-.693c-.44-.15-1.076-.555-1.446-.92a.732.732 0 00-1.076.049C7.804 7.127 6.117 6.9 5.239 6.616a.735.735 0 00-.657.103.737.737 0 00-.302.594v.905c-.018.12-.093.243-.22.243h-.347V6.539h-.001zm.75 3.98a.375.375 0 00-.375-.353h-.374a.478.478 0 01-.188-.915l.007-.003a.479.479 0 01.181-.036h.347c.504 0 .912-.392.969-.931a.368.368 0 00.002-.04V7.34c1.062.339 3.069.592 4.764-1.41.444.434 1.17.894 1.704 1.08v1.233c0 .535.435.97.97.97h.348c.063 0 .124.013.18.036l.007.003a.477.477 0 01-.187.915h-.374c-.2 0-.363.155-.375.354a3.806 3.806 0 01-1.652 2.926.377.377 0 00-.08.053 3.791 3.791 0 01-2.071.615 3.79 3.79 0 01-2.076-.617.368.368 0 00-.073-.05 3.809 3.809 0 01-1.655-2.927zm3.803 4.345c.694 0 1.353-.157 1.944-.437v.64a.49.49 0 00-.022.058c-.33 1.032-1.209 1.4-1.923 1.4s-1.593-.369-1.923-1.402a.54.54 0 00-.022-.057v-.639c.592.28 1.251.437 1.946.437zM.75 21.171v-2.939c0-.578.353-1.072.9-1.26l3.72-1.278-.725 2.377a.518.518 0 00.495.668H6.8l.94 2.73H1.05a.3.3 0 01-.3-.298zm12.6.298h-2.016v-.302h2.016v.302zm2.429-.298a.299.299 0 01-.299.299H14.1v-.513a.54.54 0 00-.54-.54h-2.435a.541.541 0 00-.542.54v.513H8.791l.94-2.73h1.659a.52.52 0 00.495-.668l-.726-2.378 3.72 1.279c.556.19.9.672.9 1.26v2.938zm-8.48-9.58c.703.456 1.31.46 1.911.013a.375.375 0 11.448.603c-.434.323-.886.484-1.352.484-.46 0-.933-.157-1.416-.47a.376.376 0 11.409-.63zM6.76 9.514a.375.375 0 11-.75 0v-.425a.375.375 0 11.75 0v.425zm3.76-.425v.425a.375.375 0 11-.752 0v-.425a.375.375 0 11.751 0zm-1.168-.964c0-.207.167-.375.375-.375h.834a.375.375 0 110 .75h-.834a.375.375 0 01-.375-.375zm-2.55.376h-.834a.375.375 0 110-.751h.834a.375.375 0 110 .75zm17.002-1.417a.884.884 0 00-.696-.332H18.7a.89.89 0 00-.87.695l-.13.565-.129-.566a.89.89 0 00-.872-.694h-1.628a.884.884 0 00-.696.332.905.905 0 00-.175.76l1.572 6.926v.875c0 .712.622 1.292 1.387 1.292h.55v4.39c0 .492.401.893.894.893h.958a.895.895 0 00.893-.894v-4.39h.564c.765 0 1.387-.579 1.387-1.291v-.875l1.572-6.925a.904.904 0 00-.174-.76zm-4.1 14.242a.143.143 0 01-.142.143h-.958a.143.143 0 01-.143-.143v-4.39h1.243v4.39zm1.951-5.681c0 .293-.29.54-.635.54h-3.86c-.351 0-.636-.242-.636-.54v-.542h5.131v.542zm1.591-7.967l-1.515 6.675h-5.283l-1.515-6.675a.15.15 0 01.03-.126.13.13 0 01.11-.049H16.7a.14.14 0 01.14.11l.356 1.566.002.006a.518.518 0 001.007-.006l.357-1.565a.139.139 0 01.14-.11h1.85l-.367 1.619a.375.375 0 10.732.166l.405-1.786h1.786a.13.13 0 01.109.049.155.155 0 01.03.126z" fill="#0080F7"/></svg>