<svg width="30" height="30" fill="none" xmlns="http://www.w3.org/2000/svg"><g clip-path="url(#clip0_228_8567)"><path d="M20.503 29.9h-.043c-.274 0-.539-.105-.739-.295l-5.113-4.868a1.072 1.072 0 011.478-1.553l4.24 4.036.074.07.07-.076 7.56-8.419a1.072 1.072 0 011.595 1.433l.075.067-.075-.067-8.367 9.316.074.067-.074-.067a1.072 1.072 0 01-.755.355zm0 0l.003.1m-.003-.1s0 0 0 0l.003.1m0 0a1.171 1.171 0 01-.853-.323l-5.114-4.868L20.506 30zm3.476-27.656v.1h4.846c.592 0 1.072.48 1.072 1.072v11.308a1.072 1.072 0 11-2.144 0v-4.377H2.244v17.31h11.408a1.072 1.072 0 110 2.143H1.172C.58 29.9.1 29.42.1 28.828V3.516c0-.592.48-1.072 1.072-1.072h4.846V1.172a1.072 1.072 0 112.144 0v1.272h5.766V1.172a1.072 1.072 0 112.144 0v1.272h5.766V1.172a1.072 1.072 0 112.144 0v1.172zM2.244 8.204v.1h25.512V4.586h-3.774V5.86a1.072 1.072 0 11-2.144 0V4.588h-5.766v1.271a1.072 1.072 0 01-2.144 0V4.588H8.162v1.271a1.072 1.072 0 11-2.144 0V4.588H2.244v3.615z" fill="#0072DE" stroke="#EBF4FD" stroke-width=".2"/></g><defs><clipPath id="clip0_228_8567"><path fill="#fff" d="M0 0h30v30H0z"/></clipPath></defs></svg>