<svg width="30" height="30" fill="none" xmlns="http://www.w3.org/2000/svg"><g clip-path="url(#clip0_228_8561)" fill="#0072DE"><path d="M29.121 20.723a6.65 6.65 0 01-4.717-1.938 6.553 6.553 0 01-1.95-4.683.88.88 0 00-1.758 0 6.554 6.554 0 01-1.95 4.683 6.65 6.65 0 01-4.718 1.938.879.879 0 100 1.758c3.677 0 6.668 2.979 6.668 6.64a.879.879 0 101.758 0c0-3.661 2.99-6.64 6.667-6.64a.879.879 0 100-1.758zm-7.546 4.665a8.47 8.47 0 00-3.787-3.781 8.427 8.427 0 002.196-1.574 8.375 8.375 0 001.59-2.191 8.36 8.36 0 001.592 2.19 8.428 8.428 0 002.195 1.575 8.47 8.47 0 00-3.786 3.781zm-9.55-11.538c-2.588 0-4.694-2.09-4.694-4.66a.879.879 0 00-1.758 0c0 2.57-2.106 4.66-4.694 4.66a.879.879 0 000 1.759c2.588 0 4.694 2.097 4.694 4.674a.879.879 0 001.758 0c0-2.577 2.106-4.674 4.694-4.674a.879.879 0 100-1.758zm-5.573 3.195a6.49 6.49 0 00-2.318-2.314 6.484 6.484 0 002.318-2.31 6.484 6.484 0 002.319 2.31 6.488 6.488 0 00-2.319 2.314zm7.003-10.971c1.904 0 3.453 1.537 3.453 3.426a.879.879 0 001.758 0 3.449 3.449 0 013.452-3.437.879.879 0 000-1.758c-1.904 0-3.452-1.537-3.452-3.426a.879.879 0 10-1.758 0 3.449 3.449 0 01-3.453 3.437.879.879 0 100 1.758zM17.79 3.76a5.24 5.24 0 001.43 1.425 5.244 5.244 0 00-1.434 1.433 5.242 5.242 0 00-1.431-1.424A5.242 5.242 0 0017.79 3.76z"/></g><defs><clipPath id="clip0_228_8561"><path fill="#fff" d="M0 0h30v30H0z"/></clipPath></defs></svg>