<svg width="20" height="20" viewBox="0 0 20 20" fill="none" xmlns="http://www.w3.org/2000/svg">
<g clip-path="url(#clip0_0_7897)">
<path d="M5.1155 2.09729L7.81573 5.77942C8.09077 6.15448 7.99727 6.6832 7.61029 6.94118C6.70691 7.54343 6.33894 8.66818 6.95276 9.56374C7.32277 10.1036 7.83747 10.7501 8.54386 11.4565C9.25025 12.1628 9.89672 12.6775 10.4366 13.0476C11.3321 13.6614 12.4569 13.2934 13.0591 12.39C13.3171 12.003 13.8458 11.9095 14.2209 12.1846L17.903 14.8848C18.4928 15.3173 18.4729 16.2045 17.8644 16.6101L16.3337 17.6306C15.2495 18.3534 13.9302 18.6066 12.7936 17.9695C11.4898 17.2387 9.50057 15.8383 6.83131 13.169C4.16204 10.4997 2.76164 8.51055 2.0308 7.20671C1.39372 6.07015 1.64695 4.75077 2.36969 3.66666L3.3902 2.1359C3.79586 1.52741 4.68302 1.50755 5.1155 2.09729Z" stroke="#0B111F" stroke-width="1.5"/>
</g>
<defs>
<clipPath id="clip0_0_7897">
<rect width="20" height="20" fill="white"/>
</clipPath>
</defs>
</svg>
