<svg width="30" height="22" viewBox="0 0 30 22" fill="none" xmlns="http://www.w3.org/2000/svg">
<path d="M5.39062 9.525C5.95501 9.525 6.4125 9.98249 6.4125 10.5469C6.4125 11.1113 5.95501 11.5687 5.39062 11.5687H1.17188C0.607491 11.5687 0.15 11.1113 0.15 10.5469C0.15 9.98249 0.607491 9.525 1.17188 9.525H5.39062Z" fill="#0072DE" stroke="#EBF4FD" stroke-width="0.3"/>
<path d="M10.688 4.8375H10.768L10.8125 4.77105C12.6803 1.98615 15.8564 0.15 19.4531 0.15C25.1858 0.15 29.85 4.81417 29.85 10.5469C29.85 11.1113 29.3925 11.5688 28.8281 11.5688C28.2637 11.5688 27.8062 11.1113 27.8062 10.5469C27.8062 5.94083 24.0592 2.19375 19.4531 2.19375C14.8471 2.19375 11.1 5.94083 11.1 10.5469C11.1 15.1529 14.8471 18.9 19.4531 18.9C21.6802 18.9 23.7772 18.0297 25.3566 16.4503C25.7557 16.0512 26.4027 16.0513 26.8017 16.4503L26.9078 16.3443L26.8017 16.4503C27.2008 16.8494 27.2008 17.4964 26.8017 17.8955C24.8358 19.8615 22.2264 20.9438 19.4531 20.9438C15.8564 20.9438 12.6803 19.1076 10.8125 16.3227L10.768 16.2563H10.688H3.51562C2.95124 16.2563 2.49375 15.7988 2.49375 15.2344C2.49375 14.67 2.95124 14.2125 3.51562 14.2125H9.50953H9.72188L9.6509 14.0124C9.26633 12.928 9.05625 11.7617 9.05625 10.5469C9.05625 9.33206 9.26633 8.16576 9.6509 7.08139L9.72188 6.88125H9.50953H3.51562C2.95124 6.88125 2.49375 6.42376 2.49375 5.85938C2.49375 5.29499 2.95124 4.8375 3.51562 4.8375H10.688Z" fill="#0072DE" stroke="#EBF4FD" stroke-width="0.3"/>
<path d="M20.475 9.375V9.525H20.625H24.1406C24.705 9.525 25.1625 9.98249 25.1625 10.5469C25.1625 11.1113 24.705 11.5687 24.1406 11.5687H19.4531C18.8887 11.5687 18.4313 11.1113 18.4313 10.5469V5.85938C18.4313 5.29499 18.8887 4.8375 19.4531 4.8375C20.0175 4.8375 20.475 5.29499 20.475 5.85938V9.375Z" fill="#0072DE" stroke="#EBF4FD" stroke-width="0.3"/>
</svg>
