<svg width="24" height="24" viewBox="0 0 24 24" fill="none" xmlns="http://www.w3.org/2000/svg">
<g clip-path="url(#clip0_110_7067)">
<path d="M23.3278 3.12378H3.83347C3.51951 3.12378 3.2659 3.37739 3.2659 3.69135V23.4327C3.2659 23.7464 3.51951 24 3.83347 24H18.9255C19.2392 24 19.4928 23.7464 19.4928 23.4327V18.393H23.3278C23.6415 18.393 23.8951 18.1394 23.8951 17.8257V3.69135C23.8951 3.37739 23.6415 3.12378 23.3278 3.12378ZM22.7602 17.2581H18.9255C18.6118 17.2581 18.3582 17.5117 18.3582 17.8257V22.8651H4.40079V4.25867H22.7602V17.2581Z" fill="#0080F7"/>
<path d="M1.9008 4.15862C2.15798 4.15862 2.36805 3.94829 2.36805 3.69137C2.36805 3.43419 2.15798 3.22412 1.9008 3.22412H0.609308C0.352385 3.22412 0.142059 3.43419 0.142059 3.69137C0.142059 3.94829 0.352385 4.15862 0.609308 4.15862H0.782967V22.9654H0.609308C0.352385 22.9654 0.142059 23.1755 0.142059 23.4327C0.142059 23.6896 0.352385 23.8999 0.609308 23.8999H1.9008C2.15798 23.8999 2.36805 23.6896 2.36805 23.4327C2.36805 23.1755 2.15798 22.9654 1.9008 22.9654H1.7139V4.15862H1.9008Z" fill="#0080F7"/>
<path d="M3.83347 2.22624C4.09039 2.22624 4.30072 2.01592 4.30072 1.75874V1.57184H22.787V1.75874C22.787 2.01592 22.9973 2.22624 23.2542 2.22624C23.5114 2.22624 23.7215 2.01592 23.7215 1.75874V0.467249C23.7215 0.210326 23.5114 0 23.2542 0C22.9973 0 22.787 0.210326 22.787 0.467249V0.640907H4.30072V0.467249C4.30072 0.210326 4.09039 0 3.83347 0C3.57629 0 3.36597 0.210326 3.36597 0.467249V1.75874C3.36597 2.01592 3.57298 2.22624 3.83347 2.22624Z" fill="#0080F7"/>
<path d="M9.46361 16.317V12.7392C9.81423 12.2987 10.1712 12.0718 10.5183 12.0718C10.7352 12.0718 10.8822 12.1319 10.9657 12.2554C11.0324 12.3521 11.109 12.5658 11.109 13.0195V16.317H12.3005V12.7392C12.6544 12.2954 13.0114 12.0718 13.362 12.0718C13.5754 12.0718 13.719 12.1319 13.8025 12.2554C13.8692 12.3521 13.9459 12.5658 13.9459 13.0195V16.317H15.1409V12.9862C15.1409 11.3741 14.243 11.0372 13.4855 11.0372C13.2451 11.0372 13.0015 11.0938 12.7545 11.204C12.5474 11.2975 12.3173 11.4844 12.0537 11.7713C11.7965 11.284 11.326 11.0372 10.6484 11.0372C10.2214 11.0372 9.82416 11.1974 9.46029 11.5177V11.1472H8.26556V16.3203H9.46361V16.317Z" fill="#0080F7"/>
<path d="M17.1433 9.62534H15.8518C15.9251 9.55532 16.0285 9.46187 16.1754 9.33837C16.5492 9.02797 16.7929 8.7876 16.923 8.60732C17.0631 8.41049 17.1367 8.18362 17.1367 7.92669C17.1367 7.63947 17.0366 7.39604 16.8428 7.20227C16.6493 7.00875 16.3756 6.91199 16.0285 6.91199C15.7049 6.91199 15.4345 7.00544 15.231 7.19234C15.0273 7.37924 14.9104 7.62954 14.8837 7.93662L14.8705 8.1169H15.6081L15.6181 7.96336C15.628 7.81975 15.6715 7.71637 15.7449 7.64965C15.8218 7.58294 15.9116 7.54933 16.0219 7.54933C16.152 7.54933 16.2455 7.57938 16.3089 7.64278C16.3723 7.70644 16.4023 7.79632 16.4023 7.91651C16.4023 8.06674 16.359 8.19355 16.2689 8.31373C16.1655 8.44716 15.9651 8.63737 15.6715 8.87112C15.3509 9.12804 15.134 9.34168 15.0108 9.52527C14.8771 9.71879 14.8104 9.92912 14.8104 10.1461V10.3128H17.1433V9.62534Z" fill="#0080F7"/>
</g>
<defs>
<clipPath id="clip0_110_7067">
<rect width="24" height="24" fill="white"/>
</clipPath>
</defs>
</svg>
