<svg width="24" height="24" viewBox="0 0 24 24" fill="none" xmlns="http://www.w3.org/2000/svg">
<path d="M1.61757 23.28H22.3824C22.5097 23.28 22.6318 23.2295 22.7218 23.1394C22.8118 23.0494 22.8624 22.9273 22.8624 22.8V20.4312C22.8606 19.8233 22.7162 19.2243 22.4406 18.6824C22.1651 18.1405 21.7662 17.6708 21.276 17.3112C19.3944 15.936 17.8512 15.1344 16.5816 14.88C16.5528 14.8129 16.5084 14.7536 16.452 14.7072L15.312 13.7712C15.2227 13.6979 15.1099 13.6592 14.9944 13.6623C14.8789 13.6654 14.7684 13.71 14.6832 13.788L12 16.236L9.31677 13.7808C9.23154 13.7028 9.12102 13.6582 9.00551 13.6551C8.89 13.652 8.77725 13.6907 8.68797 13.764L7.54797 14.7C7.49156 14.7464 7.44711 14.8057 7.41837 14.8728C6.14877 15.1344 4.60557 15.936 2.72637 17.3136C2.23546 17.6727 1.83586 18.1422 1.55987 18.6841C1.28387 19.2261 1.13921 19.8254 1.13757 20.4336V22.8C1.13757 22.9273 1.18814 23.0494 1.27816 23.1394C1.36818 23.2295 1.49027 23.28 1.61757 23.28ZM12 17.5056L13.2984 18.5712L12.6048 19.44H11.4048L10.7112 18.5664L12 17.5056ZM11.5008 20.4H12.4992L13.2 22.32H10.8L11.5008 20.4ZM21.9024 20.4264V22.32H14.2224L13.3824 20.0112L14.0424 19.1784L14.3112 19.3992C14.3969 19.4703 14.5046 19.5093 14.616 19.5096C14.6573 19.5088 14.6984 19.5031 14.7384 19.4928C14.8117 19.4731 14.8793 19.4363 14.9356 19.3854C14.9919 19.3345 15.0354 19.271 15.0624 19.2L16.3752 15.8088C17.4984 16.0488 18.9528 16.8024 20.6952 18.0864C21.0666 18.3548 21.3695 18.707 21.5793 19.1144C21.789 19.5218 21.8997 19.973 21.9024 20.4312V20.4264ZM15.024 14.7696L15.576 15.2208L14.4 18.24L12.72 16.8672L15.024 14.7696ZM8.97597 14.7696L11.28 16.8648L9.59997 18.24L8.42397 15.2208L8.97597 14.7696ZM2.09757 20.4312C2.09977 19.974 2.20955 19.5237 2.41801 19.1168C2.62648 18.7099 2.92779 18.3577 3.29757 18.0888C5.05197 16.8048 6.50637 16.0416 7.61757 15.8112L8.93757 19.2C8.96512 19.2708 9.00908 19.334 9.06582 19.3845C9.12256 19.435 9.19047 19.4713 9.26397 19.4904C9.30399 19.5007 9.34506 19.5064 9.38637 19.5072C9.4977 19.5069 9.60545 19.4679 9.69117 19.3968L9.95997 19.176L10.62 20.0088L9.77997 22.32H2.09997L2.09757 20.4312Z" fill="#0080F7"/>
<path d="M7.03437 6.34082C6.99367 7.22044 7.13587 8.09895 7.45197 8.92082C7.40552 9.76845 7.53125 10.6167 7.82157 11.4144C8.35917 12.8544 10.5144 14.4432 11.7288 14.5872H12.288C13.488 14.4432 15.648 12.8496 16.1976 11.4144C16.4986 10.587 16.6221 9.70549 16.56 8.82722V8.41442C16.848 7.75442 17.1864 6.01442 16.9656 5.01362C16.9104 4.60562 16.3512 1.25522 12.444 0.780018C9.44157 0.415218 8.49597 1.83602 7.88397 2.77682C7.74209 3.01467 7.57117 3.23395 7.37517 3.42962C6.46317 4.19762 5.80797 4.85282 5.78157 4.86962C5.73429 4.91652 5.69728 4.97274 5.6729 5.03472C5.64852 5.0967 5.63731 5.16307 5.63997 5.22962C5.64293 5.29646 5.65983 5.36195 5.68959 5.42188C5.71934 5.48181 5.7613 5.53486 5.81277 5.57762C6.18906 5.87844 6.599 6.13456 7.03437 6.34082ZM15.3 11.076C14.9016 12.1272 13.1016 13.5024 12.1992 13.6296H11.8176C10.9152 13.5024 9.11997 12.1272 8.71917 11.076C8.4686 10.3792 8.36562 9.63793 8.41677 8.89922V8.88002C8.41813 8.87369 8.41813 8.86715 8.41677 8.86082C8.41677 8.86082 8.49837 7.51202 9.31677 6.99122C9.79524 7.04544 10.2783 7.04544 10.7568 6.99122C12.624 6.75122 13.6536 6.11282 14.1024 5.74802C14.712 6.10322 15.1824 6.93362 15.6048 8.37362V8.85362C15.6036 8.8736 15.6036 8.89364 15.6048 8.91362C15.6524 9.64769 15.5486 10.3837 15.3 11.076ZM7.98717 4.16402C8.25473 3.91202 8.48649 3.62455 8.67597 3.30962C9.25677 2.43122 9.91677 1.44002 12.3336 1.73282C15.6936 2.14082 16.0056 5.01842 16.0176 5.14082C16.0164 5.1624 16.0164 5.18403 16.0176 5.20562C16.093 5.6879 16.0881 6.17933 16.0032 6.66002C15.6048 5.78162 15.0432 5.03282 14.1672 4.71842C14.0756 4.6874 13.9769 4.68406 13.8834 4.70882C13.7899 4.73357 13.7058 4.78533 13.6416 4.85762C13.6416 4.85762 12.8352 5.76002 10.6392 6.03122C10.1882 6.08878 9.73174 6.08878 9.28077 6.03122C9.18604 6.01942 9.08995 6.03613 9.00477 6.07922C8.58693 6.29238 8.23944 6.62153 8.00397 7.02722C7.9803 6.71406 7.9803 6.39957 8.00397 6.08642C8.01183 5.98578 7.98777 5.88523 7.93521 5.79906C7.88264 5.71289 7.80425 5.64548 7.71117 5.60642C7.41764 5.48186 7.13367 5.33587 6.86157 5.16962C7.14237 4.90322 7.53357 4.54562 7.98717 4.16402Z" fill="#0080F7"/>
</svg>
