<svg width="50" height="50" viewBox="0 0 50 50" fill="none" xmlns="http://www.w3.org/2000/svg">
<path d="M41.8721 37.5754C41.4676 37.5754 41.1396 37.9034 41.1396 38.3079C41.1396 38.7124 41.4676 39.0403 41.8721 39.0403H41.8799C42.2844 39.0403 42.6084 38.7124 42.6084 38.3079C42.6084 37.9034 42.2767 37.5754 41.8721 37.5754Z" fill="#0080F7"/>
<path d="M17.6045 37.5754C17.2 37.5754 16.8721 37.9034 16.8721 38.3079C16.8721 38.7124 17.2 39.0403 17.6045 39.0403H17.6123C18.0168 39.0403 18.3408 38.7124 18.3408 38.3079C18.3408 37.9034 18.0091 37.5754 17.6045 37.5754Z" fill="#0080F7"/>
<path d="M49.2371 29.4279L46.8948 27.7533L46.8611 20.6705C46.8558 19.5797 46.0425 18.7879 44.9273 18.7879H39.2417C39.3083 18.4018 39.2229 18.0221 38.9977 17.7285C38.7508 17.4069 38.3622 17.2223 37.9317 17.2223H32.8276C32.4231 17.2223 32.0952 17.5502 32.0952 17.9547C32.0952 18.3592 32.4231 18.6871 32.8276 18.6871L37.7599 18.6872L32.6987 37.5755H21.5757C21.5908 36.8419 21.3824 36.1544 20.9643 35.6096C20.3876 34.8581 19.4924 34.4442 18.4435 34.4442C16.5584 34.4442 14.6871 35.7815 13.95 37.5755L10.7308 37.5754L12.1619 32.2347C12.2665 31.844 12.0347 31.4424 11.6439 31.3377C11.2539 31.2334 10.8516 31.4648 10.7468 31.8556L9.27859 37.3355C9.16258 37.7683 9.2408 38.2052 9.49314 38.534C9.74001 38.8557 10.1286 39.0403 10.5591 39.0403H13.6333C13.6183 39.7739 13.8266 40.4613 14.2446 41.0061C14.8213 41.7576 15.7165 42.1715 16.7654 42.1715C18.6506 42.1715 20.5218 40.8341 21.2589 39.0403H37.9006C37.8856 39.7739 38.0939 40.4613 38.5119 41.0061C39.0886 41.7576 39.9838 42.1715 41.0327 42.1715C42.9178 42.1715 44.7891 40.8341 45.5262 39.0403H45.7859C46.9789 39.0403 48.1617 38.1141 48.4785 36.9317L49.919 31.5557C50.1465 30.7065 49.8852 29.8912 49.2371 29.4279ZM20.0283 38.1183C19.6523 39.5213 18.1582 40.7067 16.7654 40.7067C16.1824 40.7067 15.6999 40.4963 15.4067 40.1144C15.0915 39.7037 15.0112 39.1295 15.1807 38.4974C15.5565 37.0943 17.0508 35.909 18.4435 35.909C19.0265 35.909 19.509 36.1193 19.8022 36.5013C20.1173 36.9121 20.1977 37.4863 20.0283 38.1183ZM45.4283 27.3988H40.6845C40.5606 27.3988 40.3927 27.3724 40.2957 27.246C40.2103 27.1347 40.1921 26.9558 40.2459 26.7552L40.8751 24.4068C41.0211 23.862 41.6182 23.384 42.1527 23.384H45.409L45.4283 27.3988ZM44.2956 38.1183C43.9196 39.5213 42.4255 40.7067 41.0327 40.7067C40.4497 40.7067 39.9672 40.4963 39.674 40.1144C39.3588 39.7037 39.2785 39.1295 39.448 38.4974C39.8238 37.0943 41.3181 35.909 42.7108 35.909C43.2938 35.909 43.7763 36.1193 44.0695 36.5013C44.3846 36.9121 44.465 37.4863 44.2956 38.1183ZM47.0635 36.5527C46.9227 37.0782 46.3623 37.5402 45.843 37.5724C45.8574 36.84 45.649 36.1537 45.2315 35.6097C44.6548 34.8582 43.7596 34.4443 42.7107 34.4443C40.8256 34.4443 38.9543 35.7816 38.2172 37.5756H34.2152L35.5007 32.7779H44.3325C44.737 32.7779 45.0649 32.4499 45.0649 32.0455C45.0649 31.641 44.737 31.313 44.3325 31.313H35.8932L38.8568 20.2528H44.9271C45.1401 20.2528 45.3944 20.3266 45.396 20.6776L45.402 21.9193H42.1526C40.9596 21.9193 39.7768 22.8455 39.46 24.0278L38.8308 26.3762C38.6582 27.0201 38.7686 27.6622 39.1335 28.1378C39.4875 28.5992 40.0528 28.8638 40.6844 28.8638H45.9292L48.3851 30.6196C48.5939 30.7688 48.5288 31.0837 48.5039 31.1767L48.4674 31.313H47.4638C47.0593 31.313 46.7314 31.641 46.7314 32.0455C46.7314 32.4499 47.0593 32.7779 47.4638 32.7779H48.0749L47.0635 36.5527Z" fill="#0080F7"/>
<path d="M18.7373 31.2121C25.1842 31.2121 30.4291 25.9673 30.4291 19.5203C30.4291 13.0733 25.1842 7.82843 18.7373 7.82843C12.2904 7.82843 7.04541 13.0734 7.04541 19.5203C7.04541 25.9672 12.2904 31.2121 18.7373 31.2121ZM18.7373 9.29326C24.3765 9.29326 28.9643 13.8811 28.9643 19.5203C28.9643 25.1595 24.3766 29.7473 18.7373 29.7473C13.098 29.7473 8.51024 25.1595 8.51024 19.5203C8.51024 13.8811 13.0981 9.29326 18.7373 9.29326Z" fill="#0080F7"/>
<path d="M15.606 23.3839C15.7934 23.3839 15.9809 23.3124 16.1239 23.1694L17.7155 21.5778C18.0235 21.7314 18.3703 21.8183 18.7372 21.8183C20.0044 21.8183 21.0353 20.7874 21.0353 19.5203C21.0353 19.1534 20.9483 18.8065 20.7947 18.4985L24.7348 14.5585C25.0209 14.2725 25.0209 13.8087 24.7348 13.5228C24.4488 13.2367 23.985 13.2368 23.6991 13.5228L19.759 17.4628C19.451 17.3092 19.1041 17.2224 18.7372 17.2224C17.4701 17.2224 16.4392 18.2533 16.4392 19.5204C16.4392 19.8873 16.5261 20.2341 16.6796 20.5421L15.0881 22.1337C14.802 22.4198 14.802 22.8835 15.0881 23.1695C15.2311 23.3124 15.4185 23.3839 15.606 23.3839ZM18.7372 18.6871C19.1967 18.6871 19.5704 19.0609 19.5704 19.5203C19.5704 19.9796 19.1966 20.3535 18.7372 20.3535C18.2779 20.3535 17.904 19.9796 17.904 19.5203C17.904 19.0609 18.2779 18.6871 18.7372 18.6871Z" fill="#0080F7"/>
<path d="M18.7373 13.2073C19.1418 13.2073 19.4697 12.8794 19.4697 12.4749V11.6921C19.4697 11.2876 19.1418 10.9597 18.7373 10.9597C18.3328 10.9597 18.0049 11.2876 18.0049 11.6921V12.4749C18.0049 12.8795 18.3328 13.2073 18.7373 13.2073Z" fill="#0080F7"/>
<path d="M18.7373 25.8332C18.3328 25.8332 18.0049 26.1611 18.0049 26.5656V27.3484C18.0049 27.7529 18.3328 28.0808 18.7373 28.0808C19.1418 28.0808 19.4697 27.7529 19.4697 27.3484V26.5656C19.4697 26.1611 19.1418 25.8332 18.7373 25.8332Z" fill="#0080F7"/>
<path d="M25.7827 20.2527H26.5655C26.97 20.2527 27.298 19.9248 27.298 19.5203C27.298 19.1158 26.97 18.7878 26.5655 18.7878H25.7827C25.3782 18.7878 25.0503 19.1158 25.0503 19.5203C25.0503 19.9248 25.3782 20.2527 25.7827 20.2527Z" fill="#0080F7"/>
<path d="M12.4244 19.5203C12.4244 19.1158 12.0965 18.7878 11.692 18.7878H10.9092C10.5047 18.7878 10.1768 19.1158 10.1768 19.5203C10.1768 19.9248 10.5047 20.2527 10.9092 20.2527H11.692C12.0965 20.2527 12.4244 19.9248 12.4244 19.5203Z" fill="#0080F7"/>
<path d="M8.56054 28.9644H0.732413C0.327926 28.9644 0 29.2923 0 29.6968C0 30.1013 0.327926 30.4292 0.732413 30.4292H8.56054C8.96503 30.4292 9.29296 30.1013 9.29296 29.6968C9.29296 29.2923 8.96503 28.9644 8.56054 28.9644Z" fill="#0080F7"/>
<path d="M7.77803 32.0957H3.08105C2.67656 32.0957 2.34863 32.4236 2.34863 32.8281C2.34863 33.2326 2.67656 33.5605 3.08105 33.5605H7.77803C8.18252 33.5605 8.51045 33.2326 8.51045 32.8281C8.51045 32.4236 8.18252 32.0957 7.77803 32.0957Z" fill="#0080F7"/>
<path d="M6.99482 35.2269H5.4292C5.02471 35.2269 4.69678 35.5549 4.69678 35.9594C4.69678 36.3638 5.02471 36.6918 5.4292 36.6918H6.99482C7.39932 36.6918 7.72725 36.3638 7.72725 35.9594C7.72725 35.5549 7.39932 35.2269 6.99482 35.2269Z" fill="#0080F7"/>
</svg>
