<svg width="50" height="50" viewBox="0 0 50 50" fill="none" xmlns="http://www.w3.org/2000/svg">
<g clip-path="url(#clip0_0_8087)">
<path d="M28.2355 32.3568L26.7585 32.3569L23.3054 30.9754V29.1774C25.5439 27.7299 27.088 25.2968 27.3192 22.497H28.2354C29.5313 22.497 30.5855 21.4426 30.5855 20.1467V16.9109C30.5855 15.615 29.5312 14.5607 28.2354 14.5607H27.3499V12.8662C27.3499 10.3941 25.9389 8.24668 23.8809 7.18281C24.0347 6.66768 24.1143 6.1333 24.1143 5.58594C24.1143 2.50586 21.6084 0 18.5283 0C17.6333 0 16.7429 0.21709 15.9535 0.627734C15.5946 0.814355 15.4551 1.25654 15.6417 1.61543C15.8284 1.97432 16.2707 2.11387 16.6295 1.92715C17.2193 1.62041 17.8582 1.46484 18.5284 1.46484C20.8008 1.46484 22.6495 3.31357 22.6495 5.58594C22.6495 5.9542 22.6019 6.31445 22.5077 6.66289C22.0104 6.53838 21.4905 6.47129 20.9552 6.47129H16.1017C15.5663 6.47129 15.0464 6.53838 14.5491 6.66289C14.455 6.31445 14.4073 5.9542 14.4073 5.58594C14.4073 4.91758 14.5621 4.28047 14.8672 3.69189C15.0534 3.33281 14.9133 2.89082 14.5541 2.70459C14.1949 2.51836 13.7529 2.6585 13.5667 3.01768C13.1583 3.80518 12.9424 4.69326 12.9424 5.58594C12.9424 6.1333 13.022 6.66758 13.1758 7.18281C11.1177 8.24668 9.70674 10.394 9.70674 12.8662V14.5605H8.82129C7.52529 14.5605 6.471 15.6149 6.471 16.9108V20.1466C6.471 21.4426 7.52529 22.4968 8.82129 22.4968H9.7375C9.96875 25.2966 11.5127 27.7296 13.7512 29.1772V30.9753L10.2979 32.3568L8.82109 32.357C4.84912 32.357 1.61768 35.5885 1.61768 39.5604V48.4586C1.61768 49.3085 2.30908 49.9999 3.15908 49.9999H4.10469C4.50918 49.9999 4.83711 49.6721 4.83711 49.2675C4.83711 48.8629 4.50918 48.5351 4.10469 48.5351H3.15908C3.11689 48.5351 3.08252 48.5007 3.08252 48.4586V39.5605C3.08252 36.3963 5.65684 33.822 8.82119 33.822L9.94316 33.8219L10.6132 35.4968L8.47998 40.1636C8.13311 40.9226 8.446 41.8095 9.19248 42.1829L10.2824 42.7278C10.2962 42.7347 10.3247 42.749 10.3247 42.7963C10.3247 42.8436 10.2961 42.8579 10.2824 42.8647L9.49756 43.257C9.05566 43.478 8.74463 43.9011 8.66543 44.3887C8.58623 44.8764 8.74756 45.3762 9.09697 45.7256L11.9065 48.5352H7.03428C6.62978 48.5352 6.30186 48.863 6.30186 49.2676C6.30186 49.6722 6.62978 50 7.03428 50H33.8978C34.7477 50 35.4391 49.3086 35.4391 48.4587L35.4389 39.5604C35.4389 35.5883 32.2074 32.3568 28.2355 32.3568ZM26.1192 44.175L26.904 44.5673C26.9127 44.5717 26.939 44.5849 26.9453 44.6234C26.9516 44.6621 26.9308 44.683 26.9238 44.6898L23.0784 48.5352H21.755L22.3875 41.3657C22.5814 41.4503 22.7892 41.4943 22.999 41.4943C23.1525 41.4943 23.3071 41.4713 23.458 41.4244C23.9036 41.286 24.2586 40.9582 24.4318 40.5249L25.6916 37.3757L27.2443 40.7725C27.2616 40.8102 27.2461 40.8542 27.2091 40.8727L26.119 41.4176C25.5935 41.6803 25.267 42.2087 25.267 42.7962C25.267 43.3837 25.5936 43.9121 26.1192 44.175ZM23.072 39.9808C23.0687 39.9892 23.0584 40.0146 23.0236 40.0254C22.989 40.0364 22.966 40.0211 22.9585 40.016L22.171 39.491C22.1692 39.4898 22.1676 39.4888 22.1658 39.4876L19.5264 37.728L22.8695 32.3786L25.6655 33.4973L23.072 39.9808ZM29.1207 16.9109V20.1467C29.1207 20.635 28.7235 21.0321 28.2354 21.0321H27.3499L27.35 16.0255H28.2355C28.7235 16.0256 29.1207 16.4228 29.1207 16.9109ZM16.1017 7.93623H20.9552C23.6735 7.93623 25.8852 10.1478 25.8852 12.8662V14.451C24.8611 14.137 24.1144 13.1828 24.1144 12.0573V10.4395C24.1144 10.0349 23.7864 9.70703 23.3819 9.70703C22.9774 9.70703 22.6495 10.0349 22.6495 10.4395C22.6495 12.7118 20.8008 14.5604 18.5284 14.5604H13.6749C12.7265 14.5604 11.8551 14.8953 11.1717 15.4524V12.8661C11.1716 10.1478 13.3832 7.93623 16.1017 7.93623ZM7.93584 20.1466V16.9108C7.93584 16.4226 8.33301 16.0254 8.82129 16.0254H9.70684L9.70693 21.032H8.82139C8.33311 21.0319 7.93584 20.6348 7.93584 20.1466ZM11.1717 21.7645V18.5263C11.1729 17.147 12.2954 16.0254 13.6749 16.0254H18.5284C20.3723 16.0254 22.0096 15.127 23.0274 13.7454C23.5625 14.8789 24.6187 15.7191 25.8852 15.9565L25.8851 21.7646C25.8851 25.8211 22.5849 29.1213 18.5284 29.1213C14.4719 29.1212 11.1717 25.821 11.1717 21.7645ZM18.5284 30.586C19.6993 30.586 20.8173 30.3562 21.8405 29.9401V31.2611L18.5283 36.5611L15.216 31.2611V29.9401C16.2394 30.3562 17.3574 30.586 18.5284 30.586ZM14.1871 32.3787L17.5303 37.7281L14.8885 39.4892C14.8869 39.4901 14.8854 39.4912 14.8839 39.4922L14.098 40.0161C14.0905 40.0211 14.0677 40.0364 14.0329 40.0255C13.9981 40.0147 13.988 39.9893 13.9846 39.981L11.391 33.4974L14.1871 32.3787ZM10.1328 44.6898C10.126 44.683 10.1051 44.6621 10.1114 44.6233C10.1177 44.5848 10.144 44.5716 10.1526 44.5672L10.9375 44.1748C11.4631 43.9121 11.7896 43.3837 11.7896 42.7962C11.7896 42.2087 11.4631 41.6803 10.9375 41.4176L9.84766 40.8727C9.81055 40.8542 9.79502 40.8101 9.81221 40.7725L11.3648 37.3759L12.6245 40.525C12.7978 40.9582 13.1527 41.286 13.5983 41.4244C13.7491 41.4713 13.9037 41.4943 14.0573 41.4943C14.2688 41.4943 14.478 41.4496 14.6732 41.3639L15.3324 48.5353H13.9782L10.1328 44.6898ZM16.8035 48.5352L16.0619 40.4674L18.5282 38.8233L20.9962 40.4685L20.2846 48.5352H16.8035ZM33.8977 48.5352H25.1502L27.9598 45.7256C28.3091 45.3762 28.4705 44.8765 28.3913 44.3887C28.3121 43.901 28.0011 43.4779 27.5592 43.2568L26.7744 42.8646C26.7606 42.8577 26.732 42.8434 26.732 42.7961C26.732 42.7488 26.7606 42.7345 26.7743 42.7276L27.8644 42.1827C28.6109 41.8094 28.9238 40.9224 28.5769 40.1633L26.4436 35.4964L27.1136 33.8216L28.2356 33.8215C31.3999 33.8215 33.9742 36.3958 33.9742 39.5602L33.9744 48.4585C33.9742 48.5008 33.9398 48.5352 33.8977 48.5352Z" fill="#0080F7"/>
<path d="M16.0249 20.1464V19.3376C16.0249 18.933 15.697 18.6052 15.2925 18.6052C14.888 18.6052 14.5601 18.933 14.5601 19.3376V20.1464C14.5601 20.551 14.888 20.8788 15.2925 20.8788C15.697 20.8788 16.0249 20.5509 16.0249 20.1464Z" fill="#0080F7"/>
<path d="M21.7642 20.8788C22.1687 20.8788 22.4966 20.551 22.4966 20.1464V19.3376C22.4966 18.933 22.1687 18.6052 21.7642 18.6052C21.3597 18.6052 21.0317 18.933 21.0317 19.3376V20.1464C21.0317 20.5509 21.3597 20.8788 21.7642 20.8788Z" fill="#0080F7"/>
<path d="M21.2329 24.7778C21.4355 24.4277 21.316 23.9797 20.9659 23.777C20.616 23.5746 20.1677 23.6938 19.9651 24.044C19.6625 24.5668 19.1 24.8915 18.4971 24.8915C17.8941 24.8915 17.3315 24.5667 17.029 24.0438C16.8264 23.6936 16.3783 23.5743 16.0284 23.7767C15.6782 23.9793 15.5586 24.4273 15.7612 24.7774C16.3247 25.7514 17.373 26.3563 18.4972 26.3563C19.6209 26.3563 20.6693 25.7515 21.2329 24.7778Z" fill="#0080F7"/>
<path d="M39.5602 8.08917C38.2643 8.08917 37.21 9.14357 37.21 10.4395C37.21 11.7354 38.2643 12.7897 39.5602 12.7897C40.8562 12.7897 41.9104 11.7354 41.9104 10.4395C41.9104 9.14357 40.8561 8.08917 39.5602 8.08917ZM39.5602 11.3249C39.072 11.3249 38.6748 10.9277 38.6748 10.4396C38.6748 9.95128 39.072 9.55411 39.5602 9.55411C40.0484 9.55411 40.4456 9.95128 40.4456 10.4396C40.4456 10.9276 40.0484 11.3249 39.5602 11.3249Z" fill="#0080F7"/>
<path d="M47.2146 7.95784L46.2279 7.71125C46.2201 7.69211 46.2123 7.67288 46.2043 7.65393L46.7275 6.78186C47.092 6.17424 46.9967 5.40002 46.4957 4.89895L45.1009 3.50413C44.5998 3.00325 43.8254 2.90813 43.2181 3.27239L42.346 3.79563C42.3271 3.78762 42.3078 3.77981 42.2887 3.772L42.0421 2.78528C41.8702 2.09788 41.2553 1.6178 40.5468 1.6178H38.5741C37.8655 1.6178 37.2506 2.09788 37.0788 2.78528L36.8322 3.772C36.8131 3.77981 36.7938 3.78762 36.7748 3.79563L35.9027 3.27239C35.2952 2.90793 34.5209 3.00344 34.0199 3.50422L32.6252 4.89895C32.1242 5.40002 32.0289 6.17434 32.3934 6.78186L32.9166 7.65393C32.9086 7.67288 32.9008 7.69211 32.893 7.71125L31.9063 7.95784C31.2188 8.12971 30.7388 8.74465 30.7388 9.45315V11.4256C30.7388 12.1342 31.2188 12.7491 31.9063 12.9209L32.893 13.1675C32.9008 13.1866 32.9086 13.2059 32.9166 13.2249L32.3934 14.097C32.0289 14.7046 32.1242 15.4788 32.6252 15.9798L34.0199 17.3745C34.521 17.8754 35.295 17.9708 35.9029 17.6063L36.7748 17.0831C36.7938 17.0911 36.8131 17.099 36.8322 17.1068L37.0788 18.0935C37.2507 18.7809 37.8656 19.261 38.5741 19.261H40.5466C41.2552 19.261 41.8701 18.7809 42.0419 18.0935L42.2885 17.1068C42.3076 17.099 42.3269 17.0911 42.3458 17.0831L43.2179 17.6064C43.8254 17.9708 44.5995 17.8756 45.1008 17.3745L46.4955 15.9798C46.9965 15.4788 47.0917 14.7045 46.7272 14.0968L46.2041 13.2249C46.2121 13.2059 46.2199 13.1866 46.2277 13.1675L47.2144 12.9209C47.9018 12.749 48.3818 12.1341 48.3818 11.4256V9.45325C48.382 8.74465 47.902 8.12971 47.2146 7.95784ZM46.9172 11.4257C46.9172 11.4609 46.8934 11.4914 46.8592 11.4999L45.5001 11.8397C45.2599 11.8997 45.0663 12.0772 44.9854 12.3113C44.9082 12.5349 44.8191 12.7506 44.7207 12.9523C44.6121 13.175 44.6234 13.4377 44.7511 13.6502L45.4713 14.8504C45.4895 14.8807 45.4847 14.9192 45.4598 14.944L44.0651 16.3386C44.0404 16.3636 44.0019 16.3684 43.9716 16.3503L42.7711 15.6299C42.5585 15.5024 42.2958 15.491 42.0731 15.5997C41.8717 15.6981 41.6561 15.787 41.4323 15.8643C41.1982 15.9451 41.0208 16.1388 40.9607 16.379L40.621 17.7381C40.6125 17.7723 40.582 17.7961 40.5468 17.7961H38.5741C38.539 17.7961 38.5084 17.7723 38.4999 17.7381L38.1602 16.379C38.1001 16.1388 37.9227 15.9452 37.6886 15.8643C37.4649 15.7871 37.2492 15.6981 37.0476 15.5996C36.946 15.5501 36.8361 15.5255 36.7265 15.5255C36.5957 15.5255 36.4652 15.5605 36.3496 15.6299L35.1494 16.3501C35.119 16.3682 35.0807 16.3635 35.0559 16.3386L33.6611 14.9439C33.6362 14.9191 33.6314 14.8806 33.6495 14.8505L34.3698 13.6501C34.4975 13.4375 34.5088 13.1749 34.4001 12.9522C34.3017 12.7505 34.2126 12.5348 34.1355 12.3112C34.0546 12.0771 33.8609 11.8996 33.6207 11.8396L32.2616 11.4998C32.2274 11.4913 32.2036 11.4609 32.2036 11.4256V9.45325C32.2036 9.41809 32.2274 9.38752 32.2616 9.37903L33.6207 9.03928C33.8609 8.97922 34.0545 8.80178 34.1355 8.5677C34.2127 8.34397 34.3017 8.12834 34.4 7.92688C34.5087 7.70413 34.4974 7.44143 34.3698 7.22893L33.6495 6.02844C33.6313 5.99827 33.6361 5.95979 33.661 5.93499L35.0558 4.54026C35.0807 4.51536 35.1191 4.51086 35.1491 4.52864L36.3495 5.24895C36.5622 5.37659 36.8248 5.38782 37.0475 5.27922C37.2491 5.18079 37.4648 5.09172 37.6885 5.01458C37.9226 4.93372 38.1 4.74006 38.1601 4.49983L38.4998 3.14075C38.5083 3.10657 38.5388 3.08274 38.574 3.08274H40.5465C40.5816 3.08274 40.6122 3.10657 40.6207 3.14075L40.9605 4.49983C41.0205 4.74006 41.198 4.93362 41.432 5.01458C41.6558 5.09182 41.8714 5.18079 42.0729 5.27913C42.2957 5.38772 42.5583 5.37649 42.7708 5.24895L43.9713 4.52874C44.0013 4.51057 44.04 4.51536 44.0647 4.54026L45.4595 5.93499C45.4844 5.95979 45.4892 5.99827 45.471 6.02844L44.7508 7.22893C44.6231 7.44153 44.6118 7.70413 44.7205 7.92688C44.8188 8.12834 44.9078 8.34397 44.9851 8.5677C45.0659 8.80178 45.2596 8.97922 45.4998 9.03928L46.8589 9.37903C46.8931 9.38752 46.9169 9.41799 46.9169 9.45325V11.4257H46.9172Z" fill="#0080F7"/>
</g>
<defs>
<clipPath id="clip0_0_8087">
<rect width="50" height="50" fill="white"/>
</clipPath>
</defs>
</svg>
