<svg width="50" height="50" viewBox="0 0 50 50" fill="none" xmlns="http://www.w3.org/2000/svg">
<path d="M24.4137 12.9395C24.8182 12.9395 25.1461 12.6115 25.1461 12.207C25.1461 11.8025 24.8182 11.4746 24.4137 11.4746H14.7485C14.344 11.4746 14.0161 11.8025 14.0161 12.207C14.0161 12.6115 14.344 12.9395 14.7485 12.9395H24.4137Z" fill="#0080F7"/>
<path d="M10.6958 17.1875C10.6958 17.592 11.0237 17.9199 11.4282 17.9199H27.734C28.1386 17.9199 28.4664 17.592 28.4664 17.1875C28.4664 16.783 28.1386 16.4551 27.734 16.4551H11.4282C11.0237 16.4551 10.6958 16.783 10.6958 17.1875Z" fill="#0080F7"/>
<path d="M11.4282 21.3379H27.734C28.1386 21.3379 28.4664 21.01 28.4664 20.6055C28.4664 20.201 28.1386 19.873 27.734 19.873H11.4282C11.0237 19.873 10.6958 20.201 10.6958 20.6055C10.6958 21.01 11.0237 21.3379 11.4282 21.3379Z" fill="#0080F7"/>
<path d="M11.4282 28.1738H16.9918C17.3963 28.1738 17.7242 27.8459 17.7242 27.4414C17.7242 27.0369 17.3963 26.709 16.9918 26.709H11.4282C11.0237 26.709 10.6958 27.0369 10.6958 27.4414C10.6958 27.8459 11.0237 28.1738 11.4282 28.1738Z" fill="#0080F7"/>
<path d="M44.3834 32.6643C44.788 32.6643 45.1158 32.3363 45.1158 31.9318V28.6404C45.1158 28.1903 44.8873 27.78 44.5046 27.5429L40.9821 25.3611V1.02539C40.9821 0.459961 40.5222 0 39.9567 0H12.6124C12.047 0 11.587 0.459961 11.587 1.02539V3.35166H9.26074C8.69531 3.35166 8.23535 3.81162 8.23535 4.37705V6.70332H5.90918C5.34375 6.70332 4.88379 7.16328 4.88379 7.72871V45.1279C4.88379 45.6934 5.34375 46.1533 5.90918 46.1533H11.3279C11.7324 46.1533 12.0604 45.8254 12.0604 45.4209C12.0604 45.0164 11.7324 44.6885 11.3279 44.6885H6.34863V8.16816H32.8141V21.6419L28.3619 24.3994C28.4279 24.2895 28.4666 24.1611 28.4666 24.0234C28.4666 23.6189 28.1388 23.291 27.7342 23.291H11.4284C11.0239 23.291 10.696 23.6189 10.696 24.0234C10.696 24.4279 11.0239 24.7559 11.4284 24.7559H27.7342C27.7534 24.7559 27.7722 24.7544 27.791 24.753L24.633 26.709H19.3357C18.9313 26.709 18.6033 27.0369 18.6033 27.4414C18.6033 27.8459 18.9313 28.1738 19.3357 28.1738H22.7626C22.7062 28.32 22.6754 28.4774 22.6754 28.6405V30.127H11.4284C11.0239 30.127 10.696 30.4549 10.696 30.8594C10.696 31.2639 11.0239 31.5918 11.4284 31.5918H22.6753V33.5449H11.4284C11.0239 33.5449 10.696 33.8729 10.696 34.2773C10.696 34.6818 11.0239 35.0098 11.4284 35.0098H22.6753V36.7363C22.6753 36.812 22.6765 36.8875 22.6784 36.9629H11.4284C11.0239 36.9629 10.696 37.2908 10.696 37.6953C10.696 38.0998 11.0239 38.4277 11.4284 38.4277H22.8371C23.2164 40.3913 24.2503 42.1838 25.8 43.5044L27.1895 44.6885H14.7459C14.3414 44.6885 14.0135 45.0164 14.0135 45.4209C14.0135 45.8254 14.3414 46.1533 14.7459 46.1533H28.9084L33.0583 49.6898C33.3008 49.8966 33.5982 49.9999 33.8956 49.9999C34.193 49.9999 34.4904 49.8965 34.7329 49.6898L41.9912 43.5043C43.977 41.8121 45.1158 39.3452 45.1158 36.7362V35.3498C45.1158 34.9453 44.788 34.6174 44.3834 34.6174C43.9788 34.6174 43.651 34.9453 43.651 35.3498V36.7362C43.651 38.9154 42.6997 40.976 41.0411 42.3894L33.8955 48.4788L26.75 42.3894C25.0914 40.976 24.1401 38.9154 24.1401 36.7362V28.7372L33.8955 22.6949L43.651 28.7372V31.9317C43.651 32.3364 43.9789 32.6643 44.3834 32.6643ZM34.2789 21.2578V7.72871C34.2789 7.16328 33.8189 6.70332 33.2535 6.70332H9.7002V4.8165H36.1657V9.96094C36.1657 10.3654 36.4936 10.6934 36.8981 10.6934C37.3027 10.6934 37.6306 10.3654 37.6306 9.96094V4.37705C37.6306 3.81162 37.1706 3.35166 36.6052 3.35166H13.0519V1.46484H39.5173V24.4539L37.6306 23.2853V13.3789C37.6306 12.9744 37.3027 12.6465 36.8981 12.6465C36.4936 12.6465 36.1657 12.9744 36.1657 13.3789V22.378L34.5753 21.393C34.4809 21.3345 34.3813 21.2899 34.2789 21.2578Z" fill="#0080F7"/>
<path d="M27.1865 34.251C27.1865 37.9503 30.1961 40.96 33.8954 40.96C37.5948 40.96 40.6044 37.9504 40.6044 34.251C40.6044 30.5516 37.5948 27.542 33.8954 27.542C30.1961 27.542 27.1865 30.5517 27.1865 34.251ZM39.1395 34.251C39.1395 37.1426 36.787 39.4951 33.8954 39.4951C31.0039 39.4951 28.6514 37.1427 28.6514 34.251C28.6514 31.3593 31.0039 29.0068 33.8954 29.0068C36.787 29.0068 39.1395 31.3594 39.1395 34.251Z" fill="#0080F7"/>
<path d="M32.3914 33.5282C32.1054 33.2422 31.6417 33.2422 31.3556 33.5282C31.0696 33.8142 31.0696 34.278 31.3556 34.564L33.123 36.3312C33.2661 36.4742 33.4536 36.5458 33.641 36.5458C33.8284 36.5458 34.0159 36.4743 34.159 36.3312L36.8983 33.5919C37.1843 33.3058 37.1843 32.8421 36.8983 32.5561C36.6122 32.2701 36.1485 32.2701 35.8625 32.5561L33.6411 34.7776L32.3914 33.5282Z" fill="#0080F7"/>
</svg>
