<svg width="50" height="50" viewBox="0 0 50 50" fill="none" xmlns="http://www.w3.org/2000/svg">
<g clip-path="url(#clip0_0_8077)">
<path d="M4.7334 25.6667V29.9656C4.7334 31.1173 5.67041 32.0543 6.82216 32.0543H16.8125V32.8801C16.8125 34.1266 17.8265 35.1406 19.0729 35.1406H23.291C23.6956 35.1406 24.0235 34.8127 24.0235 34.4082C24.0235 34.0037 23.6956 33.6757 23.291 33.6757H19.0729C18.6342 33.6757 18.2773 33.3188 18.2773 32.8801C18.2773 31.9637 18.2773 28.9897 18.2773 28.0368C18.2773 24.3109 21.266 21.2656 24.9089 21.2168C28.5886 21.166 31.7227 24.1649 31.7227 27.939V32.8801C31.7227 33.3189 31.3658 33.6757 30.9271 33.6757H26.7091C26.3045 33.6757 25.9767 34.0037 25.9767 34.4082C25.9767 34.8127 26.3045 35.1406 26.7091 35.1406H30.9271C32.1736 35.1406 33.1876 34.1265 33.1876 32.8801V32.0543H43.1779C44.3296 32.0543 45.2666 31.1173 45.2666 29.9656V25.5799C45.2666 22.5376 43.4088 19.9403 40.7958 18.8204C41.5954 18.2859 42.248 17.5297 42.6545 16.6146C42.8188 16.2449 42.6522 15.8121 42.2824 15.6479C41.9131 15.4837 41.48 15.6503 41.3158 16.02C40.7193 17.363 39.3851 18.231 37.9172 18.231C35.8672 18.231 34.1994 16.5632 34.1994 14.5132C34.1994 12.4579 35.872 10.7955 37.9172 10.7955C39.4612 10.7955 40.821 11.7256 41.3819 13.1652C41.5286 13.542 41.9535 13.7286 42.3301 13.5819C42.7071 13.4351 42.8937 13.0105 42.7468 12.6335C41.9654 10.6271 40.0697 9.33063 37.9173 9.33063C37.035 9.33063 36.2039 9.5528 35.4759 9.94322C35.1167 9.70416 34.7415 9.49889 34.3527 9.32994C35.7079 8.41169 36.6004 6.85964 36.6004 5.10291C36.6004 2.28944 34.3115 0.000488281 31.4979 0.000488281C28.6844 0.000488281 26.3955 2.28935 26.3955 5.10291C26.3955 6.86257 27.2909 8.41696 28.6499 9.33453C28.1432 9.55485 27.6612 9.83473 27.2143 10.1684C26.5324 9.88258 25.7845 9.72418 25.0001 9.72418C24.234 9.72418 23.503 9.87613 22.834 10.1495C22.3899 9.82272 21.9127 9.54957 21.4121 9.33356C22.7702 8.41579 23.6649 6.86189 23.6649 5.10301C23.6649 2.28954 21.376 0.000585937 18.5624 0.000585937C15.7489 0.000585937 13.46 2.28944 13.46 5.10301C13.46 6.8612 14.354 8.41462 15.7111 9.33248C15.3131 9.50631 14.9298 9.71744 14.5644 9.96471C13.827 9.5608 12.9814 9.33073 12.083 9.33073C9.22528 9.33073 6.90038 11.6556 6.90038 14.5133C6.90038 16.3104 7.8202 17.8962 9.21336 18.8263C6.58613 19.9652 4.7334 22.613 4.7334 25.6667ZM38.0008 19.6976C41.2019 19.7428 43.8017 22.3671 43.8017 25.5798V29.9655C43.8017 30.3095 43.5218 30.5893 43.1778 30.5893H33.1876V27.9388C33.1876 26.6741 32.8864 25.3353 32.2369 24.1157C32.8846 21.6747 35.008 19.7173 38.0008 19.6976ZM27.8602 5.10291C27.8602 3.09716 29.492 1.46533 31.4977 1.46533C33.5035 1.46533 35.1353 3.09706 35.1353 5.10291C35.1353 7.10876 33.5035 8.74049 31.4977 8.74049C29.492 8.74049 27.8602 7.10866 27.8602 5.10291ZM31.4196 10.2053C32.4068 10.1911 33.3573 10.4265 34.2122 10.8891C33.2626 11.8591 32.7346 13.1667 32.7346 14.5132C32.7346 16.2855 33.6424 17.8902 35.0444 18.8248C33.3765 19.5433 32.0006 20.8799 31.2163 22.6245C30.3847 21.6552 29.2999 20.8451 28.0472 20.3403C29.8289 19.2211 30.8858 17.2221 30.7295 15.0516C30.6136 13.4499 29.8371 11.986 28.6068 10.9967C29.4575 10.4949 30.4282 10.2186 31.4196 10.2053ZM24.9999 11.189C27.3548 11.189 29.2814 13.1052 29.2814 15.4704C29.2814 17.8302 27.3616 19.7508 25.002 19.7518C25.0014 19.7518 25.0008 19.7519 25.0002 19.7519H25C24.9994 19.7519 24.9987 19.7518 24.9982 19.7518C24.9976 19.7518 24.9969 19.7518 24.9962 19.7518C22.6429 19.7494 20.7186 17.8367 20.7186 15.4704C20.7186 13.1008 22.6504 11.189 24.9999 11.189ZM21.4228 10.9724C20.0805 12.0355 19.2538 13.6776 19.2538 15.4705C19.2538 17.4466 20.2715 19.284 21.9526 20.3402C20.7464 20.8278 19.6692 21.6054 18.8079 22.6208C18.0487 20.9002 16.6592 19.5484 14.9606 18.8215C16.3625 17.8869 17.2657 16.2714 17.2657 14.5132C17.2657 13.1393 16.7147 11.8503 15.8117 10.9146C16.6279 10.4609 17.5373 10.218 18.4842 10.2053C19.5153 10.1899 20.5323 10.4596 21.4228 10.9724ZM14.9247 5.10291C14.9247 3.09716 16.5565 1.46533 18.5623 1.46533C20.568 1.46533 22.1998 3.09706 22.1998 5.10291C22.1998 7.10876 20.568 8.74049 18.5623 8.74049C16.5565 8.74049 14.9247 7.10866 14.9247 5.10291ZM8.36512 14.5132C8.36512 12.4632 10.0329 10.7955 12.0829 10.7955C14.1247 10.7955 15.8006 12.4551 15.8006 14.5132C15.8006 16.5011 14.2102 18.2243 12.0634 18.2305C10.0224 18.2199 8.36512 16.5567 8.36512 14.5132ZM12.0031 19.6957C14.6994 19.6572 17.1147 21.5019 17.7851 24.1304C17.1649 25.2993 16.8125 26.6499 16.8125 28.0366V30.5893H6.82216C6.47822 30.5893 6.19824 30.3095 6.19824 29.9655V25.6666C6.19824 22.4172 8.80223 19.7387 12.0031 19.6957Z" fill="#0080F7"/>
<path d="M30.6913 44.2792C31.1884 43.7947 31.364 43.0833 31.1494 42.4231C30.9349 41.7627 30.3747 41.2905 29.6877 41.1907L27.7508 40.9092C27.6381 40.8928 27.5407 40.8221 27.4903 40.72L26.6241 38.9649C26.3169 38.3423 25.6946 37.9555 25.0004 37.9555C24.306 37.9555 23.6839 38.3423 23.3765 38.9649L22.5103 40.7201C22.4599 40.8221 22.3626 40.8929 22.2499 40.9093L20.3129 41.1908C19.6259 41.2906 19.0657 41.7628 18.8511 42.4232C18.6367 43.0835 18.8123 43.7948 19.3093 44.2793L20.7109 45.6454C20.7925 45.7249 20.8297 45.8394 20.8105 45.9517L20.4796 47.8807C20.3623 48.5651 20.6383 49.2438 21.2001 49.6518C21.7615 50.0597 22.4922 50.1127 23.1069 49.7896L24.8392 48.8788C24.9401 48.8259 25.0605 48.8258 25.1612 48.8788L26.8936 49.7896C27.5082 50.1127 28.2388 50.0599 28.8006 49.6518C29.3623 49.2437 29.6383 48.5651 29.5209 47.8808L29.1901 45.9518C29.1709 45.8395 29.2081 45.725 29.2896 45.6455L30.6913 44.2792ZM28.2673 44.5964C27.8405 45.0125 27.6458 45.6117 27.7466 46.1993L28.0774 48.1284C28.1102 48.3196 27.9921 48.4286 27.9398 48.4666C27.8875 48.5045 27.7474 48.5832 27.5756 48.4929L25.843 47.5822C25.3155 47.3048 24.6856 47.3049 24.1579 47.5822L22.4255 48.493C22.2536 48.5832 22.1136 48.5047 22.0613 48.4666C22.009 48.4286 21.8908 48.3196 21.9236 48.1283L22.2546 46.1993C22.3552 45.6118 22.1606 45.0125 21.7338 44.5964L20.3322 43.2303C20.1931 43.0949 20.2246 42.9372 20.2447 42.8757C20.2646 42.8142 20.3319 42.6682 20.5238 42.6403L22.4607 42.3588C23.0507 42.2732 23.5604 41.9029 23.8242 41.3683L24.6904 39.6131C24.7762 39.4391 24.936 39.4203 25.0007 39.4203C25.0652 39.4203 25.225 39.4391 25.3108 39.6132L26.177 41.3684C26.4408 41.903 26.9506 42.2732 27.5404 42.3589L29.4772 42.6404C29.6694 42.6683 29.7366 42.8144 29.7565 42.8759C29.7765 42.9373 29.808 43.0951 29.669 43.2305L28.2673 44.5964Z" fill="#0080F7"/>
<path d="M41.522 40.0012C41.341 39.444 40.8684 39.0455 40.2885 38.9613L38.8598 38.7537C38.8392 38.7507 38.8213 38.7378 38.8123 38.7191L38.1733 37.4244C37.914 36.899 37.389 36.5726 36.8031 36.5726C36.2172 36.5726 35.6922 36.899 35.433 37.4244L34.794 38.7191C34.7848 38.7378 34.767 38.7507 34.7465 38.7537L33.3176 38.9613C32.7378 39.0456 32.2653 39.444 32.0842 40.0012C31.9032 40.5585 32.0513 41.1586 32.4709 41.5675L33.5047 42.5753C33.5197 42.5898 33.5265 42.6107 33.5231 42.6311L33.2789 44.0543C33.1799 44.6318 33.4128 45.2044 33.887 45.5487C34.3607 45.8928 34.9771 45.9376 35.496 45.6649L36.774 44.993C36.7924 44.9833 36.8145 44.9834 36.8327 44.993L38.1107 45.6648C38.6291 45.9374 39.2457 45.893 39.7198 45.5486C40.1938 45.2043 40.4267 44.6316 40.3278 44.0542L40.0836 42.6309C40.0801 42.6105 40.0869 42.5897 40.1018 42.5754L41.1358 41.5676H41.1357C41.5549 41.1586 41.703 40.5584 41.522 40.0012ZM40.1129 40.5184L39.0789 41.5262C38.7186 41.8774 38.5544 42.3831 38.6396 42.8787L38.8836 44.3017C38.8861 44.3162 38.8902 44.3404 38.8584 44.3635C38.8267 44.3864 38.805 44.3751 38.792 44.3682L37.514 43.6964C37.2914 43.5794 37.0472 43.5209 36.803 43.5209C36.5588 43.5209 36.3146 43.5794 36.092 43.6964L34.814 44.3682C34.8011 44.3752 34.7794 44.3866 34.7476 44.3635C34.7159 44.3404 34.7201 44.3162 34.7224 44.3017L34.9667 42.8787C35.0516 42.383 34.8874 41.8774 34.5271 41.5262L33.4931 40.5184C33.4827 40.5083 33.4651 40.4911 33.4772 40.4538C33.4893 40.4165 33.5136 40.413 33.5281 40.4108L34.957 40.2032C35.4548 40.1308 35.8848 39.8184 36.1074 39.3674L36.7463 38.0726C36.7528 38.0594 36.7637 38.0375 36.8029 38.0375C36.8421 38.0375 36.8531 38.0595 36.8595 38.0726L37.4985 39.3673C37.721 39.8183 38.1511 40.1307 38.649 40.2031L40.0777 40.4107C40.0922 40.4129 40.1166 40.4164 40.1287 40.4537C40.1408 40.491 40.1235 40.5082 40.1129 40.5184Z" fill="#0080F7"/>
<path d="M49.5787 37.5954C49.9611 37.2226 50.0962 36.6755 49.9311 36.1675C49.7662 35.6595 49.3352 35.2963 48.8065 35.2194L47.6576 35.0525L47.1438 34.0113C46.9074 33.5324 46.4287 33.2348 45.8945 33.2349C45.3604 33.2349 44.8819 33.5325 44.6456 34.0114L44.1318 35.0525L42.9827 35.2194C42.4542 35.2963 42.0233 35.6595 41.8583 36.1674C41.6932 36.6754 41.8283 37.2225 42.2107 37.5953L43.0422 38.4056L42.8458 39.55C42.7555 40.0764 42.9679 40.5984 43.4001 40.9124C43.8329 41.2267 44.395 41.2665 44.867 41.0183L45.8946 40.478L46.9221 41.0182C47.3947 41.2668 47.9569 41.2262 48.389 40.9123C48.8212 40.5984 49.0336 40.0763 48.9432 39.5499L48.7469 38.4055L49.5787 37.5954ZM47.6975 37.3833C47.3692 37.7035 47.2195 38.1644 47.2971 38.6162L47.4751 39.6541L46.5428 39.1639C46.3399 39.0573 46.1174 39.004 45.8947 39.004C45.672 39.004 45.4494 39.0573 45.2465 39.1639L44.3143 39.654L44.4924 38.616C44.5698 38.164 44.42 37.7031 44.0917 37.3832L43.3375 36.6481L44.3798 36.4966C44.8335 36.4307 45.2256 36.1459 45.4285 35.7347L45.8945 34.7903L46.3605 35.7347C46.5634 36.1459 46.9555 36.4306 47.4093 36.4966L48.4514 36.6481L47.6975 37.3833Z" fill="#0080F7"/>
<path d="M8.86475 41.5674L9.89874 42.5751C9.91358 42.5896 9.92042 42.6104 9.9169 42.631L9.67286 44.054C9.57374 44.6314 9.80665 45.204 10.2807 45.5484C10.7546 45.8927 11.3713 45.9375 11.8899 45.6647L13.1679 44.9928C13.1862 44.9831 13.2083 44.9832 13.2266 44.9928L14.5046 45.6646C15.023 45.9372 15.6396 45.8928 16.1137 45.5484C16.5877 45.2041 16.8206 44.6314 16.7217 44.054L16.4775 42.6307C16.474 42.6104 16.4809 42.5896 16.4958 42.575L17.5296 41.5673C17.9492 41.1583 18.0973 40.5583 17.9163 40.0011C17.7353 39.4439 17.2627 39.0454 16.6828 38.9612L15.2541 38.7536C15.2335 38.7505 15.2156 38.7376 15.2065 38.719L14.5676 37.4243C14.3083 36.8989 13.7833 36.5725 13.1974 36.5725C12.6115 36.5725 12.0865 36.8989 11.8273 37.4243L11.1883 38.719C11.1791 38.7376 11.1613 38.7505 11.1408 38.7536L9.71192 38.9612C9.13213 39.0455 8.65958 39.4439 8.47852 40.0011C8.29708 40.5584 8.44522 41.1585 8.86475 41.5674ZM9.8712 40.4538C9.88331 40.4165 9.90762 40.4129 9.92208 40.4108L11.351 40.2032C11.8488 40.1308 12.2788 39.8184 12.5014 39.3673L13.1403 38.0726C13.1468 38.0594 13.1577 38.0375 13.1969 38.0375C13.2361 38.0375 13.2471 38.0595 13.2535 38.0726L13.8925 39.3672C14.115 39.8183 14.5451 40.1307 15.043 40.2031L16.4717 40.4107C16.4862 40.4128 16.5106 40.4164 16.5227 40.4537C16.5348 40.491 16.5172 40.5081 16.5066 40.5183L15.4728 41.5261C15.1125 41.8774 14.9482 42.3831 15.0334 42.8786L15.2774 44.3016C15.2799 44.3161 15.284 44.3403 15.2523 44.3633C15.2206 44.3863 15.1988 44.375 15.1858 44.3681L13.9078 43.6962C13.4626 43.4623 12.931 43.4623 12.4857 43.6962L11.2078 44.3681C11.1949 44.375 11.1732 44.3866 11.1413 44.3633C11.1096 44.3403 11.1137 44.3161 11.1161 44.3016L11.3602 42.8789C11.4453 42.3831 11.2811 41.8774 10.9208 41.5261L9.88692 40.5183C9.87676 40.5082 9.85909 40.4911 9.8712 40.4538Z" fill="#0080F7"/>
<path d="M4.10559 33.2349C3.57151 33.2349 3.0929 33.5324 2.85647 34.0114L2.3427 35.0525L1.19368 35.2194C0.665067 35.2963 0.234207 35.6595 0.0691682 36.1675C-0.0957732 36.6755 0.0391877 37.2226 0.42161 37.5954L1.25305 38.4056L1.05667 39.5501C0.966434 40.0764 1.17884 40.5985 1.61097 40.9124C2.0429 41.2262 2.60501 41.267 3.07786 41.0183L4.1054 40.478L5.13304 41.0182C5.60569 41.2668 6.1678 41.2262 6.59993 40.9124C7.03206 40.5985 7.24446 40.0764 7.15413 39.5499L6.95784 38.4056L7.78929 37.5953C8.17171 37.2225 8.30686 36.6754 8.14173 36.1674C7.97679 35.6594 7.54583 35.2962 7.01722 35.2194L5.86819 35.0525L5.35442 34.0114C5.11809 33.5325 4.63968 33.2349 4.10559 33.2349C4.10579 33.2349 4.10569 33.2349 4.10559 33.2349ZM5.62054 36.4966L6.66272 36.6481L5.90862 37.3832C5.5803 37.7032 5.4305 38.164 5.50794 38.6162L5.68587 39.6541L4.75364 39.1639C4.34788 38.9507 3.86331 38.9507 3.45735 39.1639L2.52522 39.6541L2.70315 38.6164C2.78079 38.1645 2.63118 37.7035 2.30257 37.3832L1.54847 36.6481L2.59065 36.4966C3.04436 36.4307 3.43645 36.1459 3.63938 35.7347L4.1054 34.7903L4.57141 35.7347C4.77464 36.1459 5.16673 36.4307 5.62054 36.4966Z" fill="#0080F7"/>
</g>
<defs>
<clipPath id="clip0_0_8077">
<rect width="50" height="50" fill="white"/>
</clipPath>
</defs>
</svg>
