<svg width="24" height="24" viewBox="0 0 24 24" fill="none" xmlns="http://www.w3.org/2000/svg">
<path d="M15.1219 16.2623L10.9603 14.8317V13.9809C11.932 13.267 12.6136 12.1762 12.7833 10.9167H12.8156C13.493 10.9167 14.0442 10.3654 14.0442 9.68809C14.0442 9.28777 13.8516 8.93199 13.5539 8.70793C13.5637 8.61277 13.5684 8.51715 13.5684 8.42059V6.53902C13.5684 3.91496 11.4338 1.78027 8.80969 1.78027H7.72031C5.09625 1.78027 2.96156 3.91496 2.96156 6.53902V8.42059C2.96156 8.51621 2.96672 8.61184 2.97609 8.70699C2.6775 8.93105 2.48438 9.2873 2.48438 9.68809C2.48438 10.3654 3.03562 10.9167 3.71297 10.9167H3.74578C3.91594 12.1757 4.59703 13.2665 5.56875 13.9804V14.8317L1.40719 16.2623C0.552656 16.5553 0 17.3282 0 18.232V21.1711C0 21.7495 0.471094 22.2201 1.05047 22.2201H15.4805C16.0589 22.2201 16.5295 21.7495 16.5295 21.1711V18.232C16.5291 17.3278 15.9769 16.5548 15.1219 16.2623ZM6.98578 16.9734C7.36781 17.1679 7.80187 17.2748 8.26359 17.2748H8.26453C8.72625 17.2748 9.16078 17.1684 9.54281 16.9734L8.26406 20.6906L6.98578 16.9734ZM6.01875 16.139C6.03844 16.1667 6.05859 16.1939 6.07969 16.2211C6.02203 16.3139 6.00516 16.4301 6.04313 16.5412L6.54047 17.9878H5.45484L6.01875 16.139ZM10.4855 16.5412C10.5234 16.4301 10.5066 16.3139 10.4494 16.2211C10.47 16.1943 10.4902 16.1671 10.5098 16.1395L11.0733 17.9878H9.98766L10.4855 16.5412ZM3.71203 6.53902C3.71203 4.32887 5.51016 2.53074 7.72031 2.53074H8.80969C11.0198 2.53074 12.818 4.32887 12.818 6.53902V8.42059C12.818 8.43418 12.817 8.44777 12.817 8.4609C12.8166 8.4609 12.8166 8.4609 12.8161 8.4609H12.4692C12.3478 8.4609 12.2494 8.36246 12.2494 8.24105V6.99465C12.2494 6.67777 12.0558 6.4059 11.7548 6.30184C11.3142 6.15137 10.6786 5.74684 10.3088 5.38168C10.1644 5.23871 9.96516 5.1609 9.76266 5.17027C9.55922 5.17871 9.36609 5.2734 9.2325 5.4309C7.80516 7.12684 6.11766 6.90184 5.23922 6.61637C5.01609 6.54371 4.77047 6.58215 4.58156 6.71902C4.39266 6.85637 4.27969 7.07855 4.27969 7.3134V8.21762C4.26188 8.33762 4.18734 8.4609 4.05984 8.4609H3.71344C3.71297 8.4473 3.7125 8.43371 3.7125 8.42059V6.53902H3.71203ZM4.46109 10.5196C4.44984 10.3209 4.28531 10.1657 4.08656 10.1657H3.71297C3.44953 10.1657 3.23531 9.95152 3.23531 9.68809C3.23531 9.49215 3.35438 9.32387 3.52453 9.25074C3.52688 9.2498 3.52922 9.24887 3.53156 9.24793C3.58781 9.22496 3.64875 9.21184 3.71344 9.21184H4.06031C4.56422 9.21184 4.97156 8.82043 5.02875 8.2809C5.03016 8.26777 5.03062 8.25465 5.03062 8.24152V7.33871C6.09281 7.67762 8.1 7.93121 9.79453 5.92965C10.2389 6.36277 10.9659 6.82262 11.4989 7.00824V8.24152C11.4989 8.77684 11.9344 9.2123 12.4697 9.2123H12.8166C12.8803 9.2123 12.9412 9.22496 12.997 9.24793C12.9994 9.24887 13.0017 9.2498 13.0041 9.25074C13.1747 9.3234 13.2942 9.49262 13.2942 9.68855C13.2942 9.95199 13.08 10.1662 12.8166 10.1662H12.443C12.2438 10.1662 12.0797 10.3214 12.068 10.5201C11.9986 11.7403 11.3583 12.7996 10.4161 13.4461C10.3875 13.4606 10.3608 13.4784 10.3369 13.4995C9.73922 13.8881 9.02672 14.1136 8.265 14.1136C7.50141 14.1136 6.7875 13.8871 6.18891 13.4967C6.16687 13.4775 6.1425 13.4611 6.11625 13.4475C5.17266 12.8011 4.53094 11.7407 4.46109 10.5196ZM8.265 14.864C8.95922 14.864 9.61828 14.707 10.2094 14.4271V15.0679C10.2009 15.0867 10.1934 15.1054 10.1873 15.1251C9.85781 16.1568 8.97797 16.5243 8.26406 16.5243H8.26359C7.55016 16.5243 6.67078 16.1564 6.34125 15.1228C6.33469 15.1031 6.32719 15.0843 6.31875 15.0661V14.4271C6.91078 14.707 7.57031 14.864 8.265 14.864ZM0.750469 21.1711V18.232C0.750469 17.6545 1.10344 17.16 1.65047 16.9725L5.37 15.6937L4.64531 18.0707C4.5975 18.2268 4.62703 18.3989 4.72453 18.5296C4.82156 18.6604 4.97672 18.7387 5.14031 18.7387H6.79969L7.73906 21.4692H1.05C0.885 21.4692 0.750469 21.3356 0.750469 21.1711ZM13.3495 21.4692H11.3339V21.1673H13.3495V21.4692ZM15.7786 21.1711C15.7786 21.3356 15.645 21.4696 15.4805 21.4696H14.1005V20.9573C14.1005 20.6596 13.8581 20.4173 13.5605 20.4173H11.1248C10.8263 20.4173 10.5834 20.6596 10.5834 20.9573V21.4696H8.79094L9.73031 18.7392H11.3897C11.5528 18.7392 11.7084 18.6609 11.8055 18.5301C11.9025 18.3989 11.932 18.2273 11.8842 18.0712L11.1595 15.6942L14.8791 16.9729H14.8795C15.4345 17.1628 15.7791 17.6451 15.7791 18.2325V21.1711H15.7786ZM7.29891 11.5907C8.00156 12.0468 8.60906 12.0511 9.21047 11.6043C9.37687 11.4806 9.61219 11.5153 9.73547 11.6817C9.85922 11.8481 9.82453 12.0834 9.65812 12.2067C9.22359 12.5296 8.77172 12.6909 8.30578 12.6909C7.84641 12.6909 7.37344 12.5339 6.89016 12.2203C6.71625 12.1073 6.66656 11.8748 6.77953 11.7009C6.8925 11.5275 7.125 11.4778 7.29891 11.5907ZM6.76031 9.51371C6.76031 9.7209 6.5925 9.88918 6.38484 9.88918C6.17719 9.88918 6.00937 9.72137 6.00937 9.51371V9.08855C6.00937 8.88137 6.17719 8.71309 6.38484 8.71309C6.5925 8.71309 6.76031 8.8809 6.76031 9.08855V9.51371ZM10.5192 9.08855V9.51371C10.5192 9.7209 10.3514 9.88918 10.1437 9.88918C9.93609 9.88918 9.76828 9.72137 9.76828 9.51371V9.08855C9.76828 8.88137 9.93609 8.71309 10.1437 8.71309C10.3514 8.71309 10.5192 8.88137 10.5192 9.08855ZM9.35156 8.12527C9.35156 7.91809 9.51937 7.7498 9.72703 7.7498H10.5614C10.7686 7.7498 10.9369 7.91762 10.9369 8.12527C10.9369 8.33293 10.7691 8.50074 10.5614 8.50074H9.72703C9.51937 8.50074 9.35156 8.33246 9.35156 8.12527ZM6.80203 8.50074H5.96766C5.76047 8.50074 5.59219 8.33293 5.59219 8.12527C5.59219 7.91762 5.76 7.7498 5.96766 7.7498H6.80203C7.00922 7.7498 7.1775 7.91762 7.1775 8.12527C7.1775 8.33293 7.00969 8.50074 6.80203 8.50074ZM23.8036 7.08418C23.6353 6.87324 23.3817 6.7523 23.1075 6.7523H18.7013C18.2822 6.7523 17.9241 7.03777 17.8303 7.44652L17.7009 8.0123L17.572 7.44605C17.4783 7.0373 17.1197 6.75184 16.6997 6.75184H15.0722C14.7975 6.75184 14.5434 6.87277 14.3756 7.08371C14.2059 7.29652 14.1408 7.58105 14.2013 7.84402L15.773 14.7698V15.6445C15.773 16.357 16.395 16.9368 17.1595 16.9368H17.7103V21.3262C17.7103 21.8189 18.1111 22.2196 18.6038 22.2196H19.5619C20.0545 22.2196 20.4553 21.8189 20.4553 21.3262V16.9368H21.0192C21.7838 16.9368 22.4058 16.357 22.4058 15.6445V14.7698L23.9775 7.84496C24.0384 7.58152 23.9733 7.29699 23.8036 7.08418ZM19.7048 21.3262C19.7048 21.405 19.6406 21.4692 19.5619 21.4692H18.6038C18.525 21.4692 18.4608 21.405 18.4608 21.3262V16.9368H19.7044V21.3262H19.7048ZM21.6553 15.6445C21.6553 15.9379 21.3642 16.1859 21.0197 16.1859H17.1595C16.8089 16.1859 16.5239 15.9431 16.5239 15.6445V15.1031H21.6553V15.6445ZM23.2463 7.67809L21.7313 14.3526H16.4484L14.9334 7.67762C14.9236 7.63496 14.9348 7.58715 14.963 7.55199C14.9892 7.51918 15.0248 7.50324 15.0722 7.50324H16.6997C16.7695 7.50324 16.8244 7.54684 16.8398 7.61387L17.1961 9.17902C17.1966 9.1809 17.197 9.18277 17.1975 9.18512C17.2547 9.41855 17.4614 9.58168 17.7005 9.58168C17.9442 9.58168 18.1514 9.41574 18.2048 9.17949L18.562 7.61434C18.5775 7.54684 18.6319 7.50324 18.7013 7.50324H20.5523L20.1848 9.12277C20.1389 9.3248 20.2655 9.5259 20.468 9.57184C20.4961 9.57793 20.5238 9.58121 20.5514 9.58121C20.723 9.58121 20.8777 9.46309 20.917 9.28871L21.3225 7.50277H23.1075C23.1544 7.50277 23.1905 7.51871 23.2167 7.55199C23.2444 7.58715 23.2556 7.63543 23.2463 7.67809Z" fill="#0080F7"/>
</svg>
