<svg width="30" height="30" viewBox="0 0 30 30" fill="none" xmlns="http://www.w3.org/2000/svg">
<g clip-path="url(#clip0_228_8567)">
<path d="M20.5026 29.8992C20.4886 29.8997 20.4745 29.9 20.4605 29.9C20.1859 29.9 19.9212 29.7946 19.7215 29.6045L14.6076 24.7366C14.1789 24.3285 14.1621 23.65 14.5703 23.2212C14.9785 22.7925 15.6569 22.7757 16.0857 23.1839L20.3258 27.22L20.4004 27.2909L20.4692 27.2144L28.0306 18.7954C28.4262 18.3551 29.1039 18.3187 29.5444 18.7142C29.9848 19.1099 30.0211 19.7876 29.6255 20.2279L29.6999 20.2948L29.6255 20.2279L21.258 29.5444L21.3324 29.6112L21.258 29.5444C21.0645 29.7598 20.792 29.8878 20.5026 29.8992ZM20.5026 29.8992L20.5064 29.9991M20.5026 29.8992C20.5025 29.8992 20.5025 29.8992 20.5025 29.8992L20.5064 29.9991M20.5064 29.9991C20.4911 29.9997 20.4758 30 20.4605 30C20.1603 30 19.8709 29.8847 19.6526 29.6769L14.5387 24.8091L20.5064 29.9991ZM23.982 2.34375V2.44375H24.082H28.8281C29.4201 2.44375 29.9 2.92363 29.9 3.51562V14.8242C29.9 15.4162 29.4201 15.8961 28.8281 15.8961C28.2361 15.8961 27.7563 15.4162 27.7563 14.8242V10.5469V10.4469H27.6562H2.34375H2.24375V10.5469V27.6562V27.7563H2.34375H13.6523C14.2443 27.7563 14.7242 28.2361 14.7242 28.8281C14.7242 29.4201 14.2443 29.9 13.6523 29.9H1.17188C0.579877 29.9 0.1 29.4201 0.1 28.8281V3.51562C0.1 2.92363 0.579877 2.44375 1.17188 2.44375H5.91797H6.01797V2.34375V1.17188C6.01797 0.579877 6.49785 0.1 7.08984 0.1C7.68184 0.1 8.16172 0.579877 8.16172 1.17188V2.34375V2.44375H8.26172H13.8281H13.9281V2.34375V1.17188C13.9281 0.579877 14.408 0.1 15 0.1C15.592 0.1 16.0719 0.579877 16.0719 1.17188V2.34375V2.44375H16.1719H21.7383H21.8383V2.34375V1.17188C21.8383 0.579877 22.3182 0.1 22.9102 0.1C23.5022 0.1 23.982 0.579877 23.982 1.17188V2.34375ZM2.24375 8.20312V8.30313H2.34375H27.6562H27.7563V8.20312V4.6875V4.5875H27.6562H24.082H23.982V4.6875V5.85938C23.982 6.45137 23.5022 6.93125 22.9102 6.93125C22.3182 6.93125 21.8383 6.45137 21.8383 5.85938V4.6875V4.5875H21.7383H16.1719H16.0719V4.6875V5.85938C16.0719 6.45137 15.592 6.93125 15 6.93125C14.408 6.93125 13.9281 6.45137 13.9281 5.85938V4.6875V4.5875H13.8281H8.26172H8.16172V4.6875V5.85938C8.16172 6.45137 7.68184 6.93125 7.08984 6.93125C6.49785 6.93125 6.01797 6.45137 6.01797 5.85938V4.6875V4.5875H5.91797H2.34375H2.24375V4.6875V8.20312Z" fill="#0072DE" stroke="#EBF4FD" stroke-width="0.2"/>
</g>
<defs>
<clipPath id="clip0_228_8567">
<rect width="30" height="30" fill="white"/>
</clipPath>
</defs>
</svg>
