<svg width="179" height="60" viewBox="0 0 179 60" fill="none" xmlns="http://www.w3.org/2000/svg">
<path d="M74.2233 24.3046H73.8426C73.1573 24.3046 72.7766 24.4569 72.7766 25.2183V29.6345C70.7208 30.4721 68.5888 30.4721 68.5888 28.4924V25.2183C68.5888 24.4569 68.2081 24.3046 67.5228 24.3046H67.1421C66.3807 24.3046 66.0761 24.4569 66.0761 25.2183V28.4924C66.0761 31.9188 69.2741 32.7563 72.7766 31.5381V34.6599C72.7766 35.4213 73.1573 35.5736 73.8426 35.5736H74.2233C74.9086 35.5736 75.2893 35.4213 75.2893 34.6599V25.2183C75.2893 24.4569 74.8325 24.3046 74.2233 24.3046Z" fill="#0B111F"/>
<path d="M85.9492 28.264V34.6599C85.9492 35.4213 86.3299 35.5736 87.0152 35.5736H87.3198C88.0812 35.5736 88.4619 35.4213 88.4619 34.6599V25.2183C88.4619 24.4569 88.0812 24.3046 87.3198 24.3046H87.1675C86.4822 24.3046 86.3299 24.3807 85.7969 25.1421L81 31.6142V25.2183C81 24.4569 80.6193 24.3046 79.934 24.3046H79.5533C78.868 24.3046 78.4873 24.4569 78.4873 25.2183V34.5838C78.4873 35.3452 78.868 35.4975 79.5533 35.4975H79.7056C80.3909 35.4975 80.5431 35.4213 81.0761 34.6599L85.9492 28.264Z" fill="#0B111F"/>
<path d="M97.2183 35.6497C100.264 35.6497 101.635 34.0508 101.635 32.8325C101.635 31.9188 101.102 31.5381 100.416 31.5381C100.264 31.5381 100.188 31.6142 100.112 31.6904C99.731 32.7563 98.665 33.3655 97.3706 33.3655C95.467 33.3655 94.1726 31.9188 94.1726 29.8629C94.1726 27.8071 95.5431 26.3604 97.3706 26.3604C98.5127 26.3604 99.5025 26.8173 100.036 27.8071C100.112 27.9594 100.264 28.0355 100.492 28.0355C101.025 28.0355 101.635 27.5025 101.635 26.665C101.635 25.7513 100.34 24.1523 97.3706 24.1523C94.0203 24.1523 91.6599 26.5888 91.6599 29.9391C91.5838 33.2893 93.868 35.6497 97.2183 35.6497Z" fill="#0B111F"/>
<path d="M112.675 24.3807H105.061C104.299 24.3807 103.919 24.533 103.919 25.2183V25.599C103.919 26.2843 104.299 26.5127 105.061 26.5127H107.574V34.5838C107.574 35.3452 107.878 35.4975 108.64 35.4975H109.02C109.782 35.4975 110.162 35.3452 110.162 34.5838V26.5888H112.523C113.284 26.5888 113.665 26.3604 113.741 25.6751L113.817 25.2944C113.817 24.6091 113.437 24.3807 112.675 24.3807Z" fill="#0B111F"/>
<path d="M121.051 24C117.777 24 115.34 26.4365 115.34 29.7868C115.34 33.1371 117.7 35.6497 121.051 35.6497C124.401 35.6497 126.761 33.2132 126.761 29.7868C126.761 26.3604 124.401 24 121.051 24ZM121.051 33.3655C119.147 33.3655 117.853 31.8426 117.853 29.7868C117.853 27.6548 119.147 26.2843 121.051 26.2843C122.954 26.2843 124.249 27.731 124.249 29.7868C124.325 31.9188 123.03 33.3655 121.051 33.3655Z" fill="#0B111F"/>
<path d="M137.345 25.9797L137.497 25.2183C137.65 24.6091 137.193 24.4568 136.431 24.4568H131.025C130.188 24.4568 129.731 24.7614 129.731 25.599V34.5838C129.731 35.269 130.112 35.5736 130.797 35.5736H131.178C131.939 35.5736 132.32 35.4213 132.32 34.6599V26.5888H136.127C136.812 26.5888 137.269 26.4365 137.345 25.9797Z" fill="#0B111F"/>
<path d="M142.447 34.5838V31.8426H144.122C147.167 31.8426 148.69 30.5482 148.69 28.1117C148.69 25.6751 147.091 24.3807 144.122 24.3807H141.228C140.391 24.3807 139.934 24.6853 139.934 25.5228V34.5838C139.934 35.3452 140.315 35.4975 141 35.4975H141.381C142.142 35.4975 142.447 35.3452 142.447 34.5838ZM142.447 26.3604H144.046C145.416 26.3604 146.178 26.9695 146.178 28.1878C146.178 29.33 145.416 30.0152 144.046 30.0152H142.447V26.3604Z" fill="#0B111F"/>
<path d="M156.761 24.9898C156.457 24.3046 156.305 24.2284 155.162 24.2284C154.02 24.2284 153.792 24.2284 153.563 24.9898L149.832 34.6599C149.604 35.269 150.365 35.5736 150.975 35.5736C151.584 35.5736 152.117 35.3452 152.345 34.6599L153.107 32.6802H157.294L158.056 34.6599C158.36 35.4213 158.817 35.5736 159.426 35.5736C160.035 35.5736 160.873 35.269 160.568 34.6599L156.761 24.9898ZM153.64 30.7766L155.162 26.7411L156.685 30.7766H153.64Z" fill="#0B111F"/>
<path d="M173.817 33.2893H173.589V25.2944C173.589 24.533 173.208 24.3807 172.447 24.3807H166.736C166.051 24.3807 165.67 24.533 165.67 25.2944C165.67 29.0254 164.832 31.3096 163.69 33.2893H163.538C162.777 33.2893 162.396 33.4416 162.396 34.2031V37.2487C162.396 38.0102 162.777 38.0863 163.462 38.0863H163.843C164.528 38.0863 164.909 38.0102 164.909 37.2487V35.4213H172.447V37.2487C172.447 38.0102 172.827 38.0863 173.437 38.0863H173.817C174.503 38.0863 174.883 38.0102 174.883 37.2487V34.2031C174.959 33.4416 174.579 33.2893 173.817 33.2893ZM171.076 33.2893H166.355C167.345 31.4619 168.03 29.7107 168.107 26.5888H171.076V33.2893Z" fill="#0B111F"/>
<path d="M69.3503 41.2843H68.8173L66.4569 43.6447V41.2843H66V45.3198H66.4569V44.2538L67.3706 43.3401L68.8934 45.3198H69.4264L67.6751 43.0355L69.3503 41.2843Z" fill="#0B111F"/>
<path d="M71.4061 42.0457C71.4061 44.7868 70.8731 44.9391 70.5685 44.9391C70.4162 44.9391 70.2639 44.9391 70.1878 44.8629L70.1117 45.2437C70.2639 45.3198 70.4924 45.3198 70.6447 45.3198C71.2538 45.3198 71.8629 44.9391 71.8629 42.1218V41.665H73.5381V45.3198H73.9949V41.2843H71.4061V42.0457Z" fill="#0B111F"/>
<path d="M76.203 44.6345V41.2843H75.7462V45.3198H76.203L78.5634 41.9695V45.3198H79.0203V41.2843H78.5634L76.203 44.6345Z" fill="#0B111F"/>
<path d="M83.5127 43.0355H81.1523V41.2843H80.6954V45.3198H81.1523V43.4924H83.5127V45.3198H83.9695V41.2843H83.5127V43.0355Z" fill="#0B111F"/>
<path d="M86.1015 44.6345V41.2843H85.6447V45.3198H86.1015L88.4619 41.9695V45.3198H88.9188V41.2843H88.5381L86.1015 44.6345Z" fill="#0B111F"/>
<path d="M93.4111 43.0355H91.1269V41.2843H90.67V45.3198H91.1269V43.4924H93.4111V45.3198H93.868V41.2843H93.4111V43.0355Z" fill="#0B111F"/>
<path d="M95.6193 45.3198H96V41.665H98.1319V41.2843H95.6193V45.3198Z" fill="#0B111F"/>
<path d="M101.102 41.2081C99.8833 41.2081 99.0457 42.198 99.0457 43.264C99.0457 44.4061 99.8833 45.3198 101.102 45.3198C102.32 45.3198 103.157 44.33 103.157 43.264C103.157 42.198 102.32 41.2081 101.102 41.2081ZM101.102 44.9391C100.188 44.9391 99.5026 44.1777 99.5026 43.264C99.5026 42.3503 100.188 41.5888 101.102 41.5888C102.015 41.5888 102.701 42.3503 102.701 43.264C102.701 44.1777 102.015 44.9391 101.102 44.9391Z" fill="#0B111F"/>
<path d="M107.117 43.1878C107.421 43.0355 107.726 42.8071 107.726 42.2741C107.726 41.9695 107.65 41.8173 107.497 41.5888C107.269 41.3604 106.888 41.2081 106.431 41.2081H104.756V45.3198H106.508C107.421 45.3198 107.954 44.9391 107.954 44.2538C107.954 43.6447 107.574 43.3401 107.117 43.1878ZM105.137 41.665H106.355C106.964 41.665 107.269 41.8934 107.269 42.3503C107.269 42.8071 106.888 43.1117 106.355 43.1117H105.137V41.665ZM106.508 44.8629H105.137V43.4162H106.431C107.117 43.4162 107.497 43.6447 107.497 44.1015C107.497 44.6345 107.117 44.8629 106.508 44.8629Z" fill="#0B111F"/>
<path d="M110.772 41.2843L108.944 45.3198H109.401L109.858 44.2538H112.066L112.523 45.3198H112.98L111.152 41.2843H110.772ZM110.086 43.797L111 41.7411L111.914 43.797H110.086Z" fill="#0B111F"/>
<path d="M114.579 41.665C114.35 41.8934 114.274 42.1218 114.274 42.5025C114.274 43.1878 114.731 43.5685 115.34 43.7208L114.122 45.3198H114.655L115.873 43.797H117.015V45.3198H117.472V41.2843H115.721C115.188 41.2843 114.807 41.4365 114.579 41.665ZM117.015 41.665V43.3401H115.797C115.188 43.3401 114.731 43.0355 114.731 42.5025C114.731 41.9695 115.112 41.665 115.797 41.665H117.015Z" fill="#0B111F"/>
<path d="M124.782 41.2843H124.173L121.888 43.6447V41.2843H121.431V45.3198H121.888V44.2538L122.726 43.3401L124.325 45.3198H124.858L123.107 43.0355L124.782 41.2843Z" fill="#0B111F"/>
<path d="M127.827 41.2081C126.609 41.2081 125.772 42.198 125.772 43.264C125.772 44.4061 126.609 45.3198 127.827 45.3198C129.046 45.3198 129.883 44.33 129.883 43.264C129.883 42.198 129.046 41.2081 127.827 41.2081ZM127.827 44.9391C126.914 44.9391 126.228 44.1777 126.228 43.264C126.228 42.3503 126.914 41.5888 127.827 41.5888C128.741 41.5888 129.426 42.3503 129.426 43.264C129.426 44.1777 128.741 44.9391 127.827 44.9391Z" fill="#0B111F"/>
<path d="M133.386 43.4924L131.863 41.2843H131.406V45.3198H131.863V42.0457L133.31 44.1777H133.386L134.832 42.0457V45.3198H135.289V41.2843H134.832L133.386 43.4924Z" fill="#0B111F"/>
<path d="M136.964 45.3198H137.421V41.665H139.706V45.3198H140.162V41.2843H136.964V45.3198Z" fill="#0B111F"/>
<path d="M143.36 41.2843L141.533 45.3198H141.99L142.447 44.2538H144.655L145.112 45.3198H145.568L143.741 41.2843H143.36ZM142.599 43.797L143.513 41.7411L144.426 43.797H142.599Z" fill="#0B111F"/>
<path d="M149.756 43.0355H147.396V41.2843H146.939V45.3198H147.396V43.4924H149.756V45.3198H150.213V41.2843H149.756V43.0355Z" fill="#0B111F"/>
<path d="M152.345 44.6345V41.2843H151.888V45.3198H152.345L154.706 41.9695V45.3198H155.162V41.2843H154.782L152.345 44.6345Z" fill="#0B111F"/>
<path d="M157.066 41.665C156.838 41.8934 156.761 42.1218 156.761 42.5025C156.761 43.1878 157.218 43.5685 157.827 43.7208L156.533 45.3198H157.066L158.284 43.797H159.426V45.3198H159.883V41.2843H158.132C157.675 41.2843 157.294 41.4365 157.066 41.665ZM159.503 41.665V43.3401H158.284C157.675 43.3401 157.218 43.0355 157.218 42.5025C157.218 41.9695 157.599 41.665 158.284 41.665H159.503Z" fill="#0B111F"/>
<path d="M28.9339 0L27.1827 8.14721L28.9339 6.85279V0Z" fill="#0080F7"/>
<path d="M28.934 7.84264L24.5178 11.1168V12.9442L28.934 9.74619V7.84264Z" fill="#0080F7"/>
<path d="M43.0965 29.0102L37.7665 32.8173V35.7868L43.0965 31.9797V29.0102Z" fill="#0080F7"/>
<path d="M43.0965 24.8985L37.7665 28.7817V31.6751L43.0965 27.868V24.8985Z" fill="#0080F7"/>
<path d="M37.7665 39.0609C39.2132 38.6041 40.6599 38.2995 42.1828 38.2995C42.4874 38.2995 42.7919 38.2995 43.0965 38.2995V33.0457L37.7665 36.9289V39.0609Z" fill="#0080F7"/>
<path d="M43.0965 20.7868L37.7665 24.6701V27.6396L43.0965 23.7563V20.7868Z" fill="#0080F7"/>
<path d="M50.7867 37.5381L44.9999 33.3503V34.4924L50.7867 38.6802V37.5381Z" fill="#0080F7"/>
<path d="M50.7867 33.4264L44.9999 29.2386V30.3807L50.7867 34.5685V33.4264Z" fill="#0080F7"/>
<path d="M50.7867 29.3147L44.9999 25.1269V26.269L50.7867 30.4569V29.3147Z" fill="#0080F7"/>
<path d="M14.9239 32.3604L7.23358 37.9949V40.9645L14.9239 35.3299V32.3604Z" fill="#0080F7"/>
<path d="M14.9238 48.8071L12.2589 50.7868C13.0964 51.0914 14.0101 51.2437 14.9238 51.2437V48.8071Z" fill="#0080F7"/>
<path d="M14.9239 40.5838L7.76654 45.7614C8.07111 46.5228 8.37568 47.2843 8.83253 47.8934L14.8478 43.4772V40.5838H14.9239Z" fill="#0080F7"/>
<path d="M14.9239 24.2132L7.23358 29.7716V32.7411L14.9239 27.1827V24.2132Z" fill="#0080F7"/>
<path d="M14.9239 36.4721L7.23358 42.1066V43.8579C7.30972 44.1624 7.38587 44.5432 7.46201 44.8477L14.9239 39.4416V36.4721Z" fill="#0080F7"/>
<path d="M14.9238 44.6954L9.44159 48.6548C9.51773 48.731 9.51773 48.731 9.59387 48.8071C10.1269 49.4162 10.6599 49.8731 11.3451 50.2538L15 47.5888V44.6954H14.9238Z" fill="#0080F7"/>
<path d="M14.9239 28.3249L7.23358 33.8832V36.8528L14.9239 31.2183V28.3249Z" fill="#0080F7"/>
<path d="M18.6549 50.33L16.8275 49.0355V50.1777L17.5889 50.7107C17.9696 50.6345 18.3503 50.4822 18.6549 50.33Z" fill="#0080F7"/>
<path d="M20.1016 49.6447C20.4061 49.4924 20.7107 49.3401 21.0914 49.1117C21.1676 49.0355 21.3198 48.9594 21.396 48.9594V48.2741L21.4721 45.3807V44.2386L21.5483 41.3452V40.203L21.6244 37.3096V36.1675L21.7005 33.2741V32.132L21.7767 29.2386L22.0051 18.2741L22.2335 29.6193L22.3097 32.5888V33.731L22.3858 36.7005V37.8426L22.462 40.8122V41.9543L22.5381 44.9239V46.066L22.6143 48.198C23.0711 47.8934 23.4518 47.665 23.9087 47.3604L24.5178 16.2944L25.1269 46.5228C25.5838 46.2183 26.0407 45.8376 26.5736 45.533L27.0305 14.467L27.5635 44.7716C28.0203 44.467 28.4772 44.1624 28.9341 43.8579V10.8122L20.1016 17.2081V27.9442V30.9137L16.8275 28.5533V29.6954L20.1016 32.0558V35.0254L16.8275 32.665V33.8071L20.1016 36.1675V39.1371L16.8275 36.7766V37.9188L20.1016 40.2792V43.2487L16.8275 40.8883V42.0305L20.1016 44.3909V47.3604L16.9036 44.9239V46.066L20.1777 48.4264V49.6447H20.1016Z" fill="#0080F7"/>
<path d="M36.1675 33.9594V32.8173L36.0914 29.9239V28.7817L36.0152 25.8883L35.8629 18.1218L35.7107 26.1167L35.6345 29.0863V30.2284L35.5584 33.198V34.3401L35.4822 37.3096V38.4518V39.8223C35.7868 39.67 36.0152 39.5939 36.3198 39.4416V37.8426V36.7005L36.1675 33.9594Z" fill="#0080F7"/>
<path d="M33.3502 16.2944L32.8934 41.269C33.1979 41.1168 33.5025 40.8883 33.8071 40.736L33.3502 16.2944Z" fill="#0080F7"/>
<path d="M30.8376 14.467L30.3046 42.868C30.6092 42.6396 30.9899 42.4112 31.2945 42.2589L30.8376 14.467Z" fill="#0080F7"/>
<path d="M14.9239 21.3198L10.9645 24.2132V25.8883L14.9239 22.9949V21.3198Z" fill="#0080F7"/>
<path d="M43.0964 18.198L39.8223 20.5584V21.9289L43.0964 19.5685V18.198Z" fill="#0080F7"/>
<path d="M37.6904 18.2741C37.995 14.467 38.2234 14.2386 42.0305 13.934C38.2234 13.6294 37.995 13.401 37.6904 9.59391C37.3858 13.401 37.1574 13.6294 33.3503 13.934C37.1574 14.1624 37.3858 14.467 37.6904 18.2741Z" fill="#0080F7"/>
<path d="M5.78679 30.6091C6.09136 26.7259 6.39592 26.4975 10.203 26.1929C6.31978 25.8883 6.09136 25.5838 5.78679 21.7767C5.48222 25.6599 5.17765 25.8883 1.37054 26.1929C5.17765 26.4975 5.40608 26.7259 5.78679 30.6091Z" fill="#0080F7"/>
<path d="M41.4213 11.9543C41.6497 9.44163 41.802 9.28934 44.3147 9.06091C41.802 8.83249 41.6497 8.6802 41.4213 6.16751C41.1929 8.6802 41.0406 8.83249 38.5279 9.06091C41.0406 9.2132 41.269 9.44163 41.4213 11.9543Z" fill="#0080F7"/>
<path d="M6.39593 37.3096C-8.70391e-06 39.4416 -0.837572 44.9239 0.609128 44.9239C2.96953 44.9239 1.97969 39.67 6.39593 37.3096Z" fill="#0080F7"/>
<path d="M15.533 59.5431C27.0305 62.2843 36.1675 51.5482 44.5432 52.8426C35.863 49.0355 27.7158 59.5431 15.533 59.5431Z" fill="#0080F7"/>
<path d="M50.9391 41.9543C53.2234 43.4772 53.2234 48.198 54.594 47.9695C55.66 47.8173 55.7361 44.467 50.9391 41.9543Z" fill="#0080F7"/>
<path d="M45.9899 52.4619C45.7615 54.9746 45.6092 55.1269 43.0965 55.3553C45.6092 55.5838 45.7615 55.736 45.9899 58.2487C46.2183 55.736 46.3706 55.5838 48.8833 55.3553C46.3706 55.203 46.2183 54.9746 45.9899 52.4619Z" fill="#0080F7"/>
<path d="M50.7106 49.797L50.5584 49.7208C51.6243 42.335 46.066 39.7462 42.2589 39.7462C32.5127 39.7462 23.4518 52.2335 14.9238 52.2335C13.934 52.2335 13.0203 52.0812 12.1827 51.8528C13.7817 53.2233 15.6091 53.8325 17.0558 54.0609C7.9949 54.1371 5.40607 46.8274 5.40607 41.1168C5.40607 40.8883 5.40607 40.736 5.40607 40.5076C5.40607 39.9746 5.48221 39.4416 5.55836 38.9848C-0.609157 50.1015 6.39592 58.5533 14.8477 58.5533C24.8985 58.5533 30.4568 52.3858 37.0812 51.1675C35.4061 49.9492 31.8274 50.3299 29.6954 51.3198C40.5076 44.6193 50.0254 50.4822 50.9391 56.4213C53.3756 52.0051 53.2995 47.9695 51.7005 45C51.7766 46.599 51.3959 48.4264 50.7106 49.797ZM44.2386 40.8122C42.9441 41.1167 35.2538 41.802 29.0863 46.6751C29.0863 46.7513 37.9949 38.8325 44.2386 40.8122Z" fill="#0080F7"/>
</svg>
