<svg width="20" height="20" viewBox="0 0 20 20" fill="none" xmlns="http://www.w3.org/2000/svg">
<path d="M5.1487 12.9063L5.70787 12.4065L5.70122 12.3991L5.69438 12.3918L5.1487 12.9063ZM14.8513 12.9063L14.3056 12.3918L14.2988 12.3991L14.2921 12.4065L14.8513 12.9063ZM10 18.3337L9.44084 18.8335C9.58312 18.9927 9.78651 19.0837 10 19.0837C10.2135 19.0837 10.4169 18.9927 10.5592 18.8335L10 18.3337ZM4.08334 8.33366C4.08334 5.06597 6.73233 2.41699 10 2.41699V0.916992C5.9039 0.916992 2.58334 4.23755 2.58334 8.33366H4.08334ZM10 2.41699C13.2677 2.41699 15.9167 5.06597 15.9167 8.33366H17.4167C17.4167 4.23755 14.0961 0.916992 10 0.916992V2.41699ZM5.69438 12.3918C4.69487 11.3318 4.08334 9.90496 4.08334 8.33366H2.58334C2.58334 10.3025 3.35151 12.0936 4.60302 13.4209L5.69438 12.3918ZM15.9167 8.33366C15.9167 9.90496 15.3052 11.3318 14.3056 12.3918L15.397 13.4209C16.6485 12.0936 17.4167 10.3025 17.4167 8.33366H15.9167ZM10.5592 18.8335L15.4105 13.4062L14.2921 12.4065L9.44084 17.8338L10.5592 18.8335ZM10.5592 17.8338L5.70787 12.4065L4.58953 13.4062L9.44084 18.8335L10.5592 17.8338ZM11.75 8.33366C11.75 9.30016 10.9665 10.0837 10 10.0837V11.5837C11.7949 11.5837 13.25 10.1286 13.25 8.33366H11.75ZM10 10.0837C9.03351 10.0837 8.25001 9.30016 8.25001 8.33366H6.75001C6.75001 10.1286 8.20508 11.5837 10 11.5837V10.0837ZM8.25001 8.33366C8.25001 7.36716 9.03351 6.58366 10 6.58366V5.08366C8.20508 5.08366 6.75001 6.53873 6.75001 8.33366H8.25001ZM10 6.58366C10.9665 6.58366 11.75 7.36716 11.75 8.33366H13.25C13.25 6.53873 11.7949 5.08366 10 5.08366V6.58366Z" fill="#0B111F"/>
</svg>
