<svg width="30" height="30" viewBox="0 0 30 30" fill="none" xmlns="http://www.w3.org/2000/svg">
<g clip-path="url(#clip0_228_8561)">
<path d="M29.1211 20.7229C27.3376 20.7229 25.6627 20.0349 24.4043 18.7854C23.1463 17.5367 22.4538 15.8734 22.4538 14.1021C22.4538 13.6166 22.0601 13.2231 21.5748 13.2231C21.0894 13.2231 20.6959 13.6166 20.6959 14.1021C20.6959 15.8734 20.0031 17.5367 18.7452 18.7854C17.4868 20.0349 15.8118 20.7229 14.0284 20.7229C13.5429 20.7229 13.1495 21.1164 13.1495 21.6018C13.1495 22.0873 13.5429 22.4807 14.0284 22.4807C17.7047 22.4807 20.6959 25.4596 20.6959 29.121C20.6959 29.6065 21.0894 30 21.5748 30C22.0601 30 22.4538 29.6065 22.4538 29.121C22.4538 25.4596 25.4448 22.4807 29.1211 22.4807C29.6065 22.4807 30 22.0873 30 21.6018C30 21.1164 29.6065 20.7229 29.1211 20.7229ZM21.5748 25.3882C20.7587 23.7556 19.4245 22.4233 17.7885 21.6066C18.5907 21.2088 19.3313 20.6806 19.9837 20.0328C20.6389 19.3824 21.1729 18.6431 21.5746 17.842C21.9765 18.6431 22.5105 19.3824 23.1656 20.0328C23.8179 20.6806 24.5588 21.2088 25.3608 21.6066C23.725 22.4233 22.3908 23.7556 21.5748 25.3882Z" fill="#0072DE"/>
<path d="M12.0255 13.8508C9.43703 13.8508 7.33109 11.7605 7.33109 9.1908C7.33109 8.70557 6.93764 8.31189 6.45218 8.31189C5.96672 8.31189 5.57327 8.70557 5.57327 9.1908C5.57327 11.7605 3.46733 13.8508 0.878906 13.8508C0.393448 13.8508 0 14.2445 0 14.7297C0 15.2152 0.393448 15.6086 0.878906 15.6086C3.46733 15.6086 5.57327 17.7057 5.57327 20.2831C5.57327 20.7683 5.96672 21.162 6.45218 21.162C6.93764 21.162 7.33109 20.7683 7.33109 20.2831C7.33109 17.7057 9.43703 15.6086 12.0255 15.6086C12.5109 15.6086 12.9044 15.2152 12.9044 14.7297C12.9044 14.2445 12.5109 13.8508 12.0255 13.8508ZM6.45218 17.0449C5.89165 16.0898 5.09102 15.2907 4.13361 14.7309C5.09102 14.1722 5.89165 13.375 6.45218 12.4219C7.01271 13.375 7.81334 14.1722 8.77075 14.7309C7.81334 15.2907 7.01271 16.0895 6.45218 17.0449Z" fill="#0072DE"/>
<path d="M13.4553 6.07361C15.3589 6.07361 16.9077 7.61055 16.9077 9.49951C16.9077 9.98474 17.3012 10.3784 17.7866 10.3784C18.2721 10.3784 18.6655 9.98474 18.6655 9.49951C18.6655 7.60437 20.2144 6.06262 22.118 6.06262C22.6034 6.06262 22.9969 5.66895 22.9969 5.18372C22.9969 4.69826 22.6034 4.30481 22.118 4.30481C20.2144 4.30481 18.6655 2.76787 18.6655 0.878906C18.6655 0.393448 18.2721 0 17.7866 0C17.3012 0 16.9077 0.393448 16.9077 0.878906C16.9077 2.77405 15.3589 4.3158 13.4553 4.3158C12.9698 4.3158 12.5764 4.70924 12.5764 5.1947C12.5764 5.68016 12.9698 6.07361 13.4553 6.07361ZM17.7887 3.7603C18.1679 4.32243 18.6548 4.80698 19.2197 5.18463C18.6527 5.56435 18.1645 6.05209 17.7846 6.61812C17.4053 6.05598 16.9185 5.57144 16.3536 5.19379C16.9205 4.81407 17.409 4.32632 17.7887 3.7603Z" fill="#0072DE"/>
</g>
<defs>
<clipPath id="clip0_228_8561">
<rect width="30" height="30" fill="white"/>
</clipPath>
</defs>
</svg>
