<svg width="40" height="41" viewBox="0 0 40 41" fill="none" xmlns="http://www.w3.org/2000/svg">
<g clip-path="url(#clip0_0_7792)">
<path d="M0 1H40V41H0V1Z" fill="#19AA1E"/>
<path fill-rule="evenodd" clip-rule="evenodd" d="M0 0.5H40V13.6237L0 7.37453V0.5Z" fill="#FFB919"/>
<path fill-rule="evenodd" clip-rule="evenodd" d="M0 36.1236L40 29.8745V40.499H0V36.1236Z" fill="#82D714"/>
<path fill-rule="evenodd" clip-rule="evenodd" d="M0 6.58447L13.9624 8.76609C15.7004 7.66559 17.7681 7.06201 19.9994 7.06201C23.09 7.06201 25.868 8.21948 27.8896 10.2508C28.1441 10.5078 28.3841 10.7756 28.6107 11.0544L40 12.8336V14.4153L29.767 12.8154C30.5329 14.2796 30.9341 15.9069 30.9366 17.5592C30.9366 19.7021 30.4578 21.8388 29.4664 23.9841L29.4373 24.0496L29.0155 24.9513H28.0217C25.9661 24.9513 24.6038 25.5658 23.7118 26.6554C23.0125 27.5098 22.6076 28.6637 22.4719 29.9217L22.467 29.9605L22.4477 30.1617L22.4392 30.249L22.4222 30.4199C22.3701 30.9823 22.3362 31.4586 22.318 31.8464L40 29.083V30.6647L0 36.9151V35.3334L17.7014 32.5676L17.6941 32.2124L17.6917 32.1131L17.6893 32.0609L17.6869 31.9822C17.6711 31.5519 17.6311 31.0004 17.5681 30.3314L17.556 30.2041L17.5342 29.9848C17.4081 28.7194 17.0094 27.5523 16.31 26.6845C15.4289 25.5876 14.0799 24.9634 12.0401 24.9513H10.9832L10.5627 24.0496C9.55186 21.8825 9.06221 19.7239 9.06221 17.5592C9.06221 14.8371 10.1663 12.2046 12.1104 10.2508L12.2801 10.0848L0 8.16494V6.58447Z" fill="white"/>
<path fill-rule="evenodd" clip-rule="evenodd" d="M19.9994 8.62402C25.5843 8.62402 29.3743 12.9218 29.3743 17.559C29.3743 19.4206 28.9682 21.3574 28.0204 23.3887C22.5264 23.3887 21.1702 27.3229 20.9132 29.8003L20.8962 29.9639C20.8102 30.8487 20.7593 31.5577 20.746 32.091L19.2576 32.3237V32.2752C19.2369 31.4875 19.1835 30.7011 19.0976 29.9178L19.094 29.8742C18.8564 27.4029 17.5293 23.3887 11.9795 23.3887C11.0305 21.3574 10.6245 19.4206 10.6245 17.559C10.6245 12.9218 14.4156 8.62402 19.9994 8.62402Z" fill="#0073FA"/>
</g>
<defs>
<clipPath id="clip0_0_7792">
<rect y="0.5" width="40" height="40" rx="10" fill="white"/>
</clipPath>
</defs>
</svg>
