<svg width="40" height="41" viewBox="0 0 40 41" fill="none" xmlns="http://www.w3.org/2000/svg">
<path d="M3.40002 20.5002C3.40002 11.2952 10.86 3.8335 20.0667 3.8335C29.27 3.8335 36.7334 11.2952 36.7334 20.5002C36.7334 29.7052 29.27 37.1668 20.0667 37.1668C10.86 37.1668 3.40002 29.7052 3.40002 20.5002Z" fill="#FC3F1D"/>
<path d="M22.2 13.2768H20.66C17.8367 13.2768 16.3517 14.7068 16.3517 16.8151C16.3517 19.1984 17.3783 20.3151 19.4867 21.7468L21.2283 22.9201L16.2233 30.3984H12.4833L16.975 23.7084C14.3917 21.8568 12.9417 20.0584 12.9417 17.0168C12.9417 13.2034 15.6 10.6001 20.6417 10.6001H25.6467V30.3801H22.2V13.2768Z" fill="white"/>
</svg>
