<svg width="20" height="20" fill="none" xmlns="http://www.w3.org/2000/svg"><g clip-path="url(#clip0_0_7897)"><path d="M5.115 2.097l2.7 3.682a.816.816 0 01-.205 1.162c-.903.602-1.271 1.727-.657 2.623.37.54.884 1.186 1.59 1.893a13.45 13.45 0 001.894 1.59c.895.614 2.02.246 2.622-.657a.816.816 0 011.162-.205l3.682 2.7c.59.432.57 1.32-.039 1.725l-1.53 1.02c-1.085.723-2.404.977-3.54.34-1.304-.731-3.293-2.132-5.963-4.801-2.669-2.67-4.07-4.658-4.8-5.962-.637-1.137-.384-2.456.339-3.54l1.02-1.531a1.053 1.053 0 011.725-.039z" stroke="#0B111F" stroke-width="1.5"/></g><defs><clipPath id="clip0_0_7897"><path fill="#fff" d="M0 0h20v20H0z"/></clipPath></defs></svg>