<svg width="24" height="24" fill="none" xmlns="http://www.w3.org/2000/svg"><path d="M1.618 23.28h20.764a.48.48 0 00.48-.48v-2.369a3.883 3.883 0 00-1.586-3.12c-1.882-1.375-3.425-2.177-4.694-2.431a.457.457 0 00-.13-.173l-1.14-.936a.48.48 0 00-.629.017L12 16.236l-2.683-2.455a.48.48 0 00-.629-.017l-1.14.936a.457.457 0 00-.13.173c-1.27.261-2.812 1.063-4.692 2.44a3.88 3.88 0 00-1.588 3.12V22.8a.48.48 0 00.48.48zM12 17.506l1.298 1.065-.693.869h-1.2l-.694-.874L12 17.506zm-.5 2.894h1l.7 1.92h-2.4l.7-1.92zm10.402.026v1.894h-7.68l-.84-2.309.66-.833.27.221a.48.48 0 00.624-.014.48.48 0 00.126-.185l1.313-3.391c1.123.24 2.578.993 4.32 2.277a2.915 2.915 0 011.207 2.345v-.005zm-6.878-5.656l.552.45-1.176 3.02-1.68-1.373 2.304-2.097zm-6.048 0l2.304 2.095L9.6 18.24l-1.176-3.02.552-.45zm-6.878 5.66a2.914 2.914 0 011.2-2.342c1.754-1.284 3.208-2.047 4.32-2.278l1.32 3.389a.48.48 0 00.753.197l.269-.221.66.833-.84 2.311H2.1l-.002-1.889z" fill="#0080F7"/><path d="M7.034 6.34c-.04.88.102 1.759.418 2.58-.046.848.08 1.697.37 2.494.537 1.44 2.692 3.03 3.907 3.173h.559c1.2-.144 3.36-1.737 3.91-3.173a6.273 6.273 0 00.362-2.587v-.413c.288-.66.626-2.4.406-3.4-.056-.408-.615-3.759-4.522-4.234-3.002-.365-3.948 1.056-4.56 1.997a3.34 3.34 0 01-.509.653c-.912.768-1.567 1.423-1.593 1.44a.48.48 0 00.03.708c.377.3.787.557 1.222.763zm8.266 4.736c-.398 1.051-2.198 2.426-3.1 2.554h-.382c-.903-.128-2.698-1.503-3.099-2.554a5.342 5.342 0 01-.302-2.177V8.88a.046.046 0 000-.02s.081-1.348.9-1.869a6.42 6.42 0 001.44 0c1.867-.24 2.897-.878 3.345-1.243.61.355 1.08 1.186 1.503 2.626v.48a.5.5 0 000 .06 5.37 5.37 0 01-.305 2.162zM7.987 4.164c.268-.252.5-.54.689-.854.58-.879 1.24-1.87 3.658-1.577 3.36.408 3.672 3.285 3.684 3.408a.584.584 0 000 .065c.075.482.07.973-.015 1.454-.398-.878-.96-1.627-1.836-1.942a.492.492 0 00-.525.14s-.807.902-3.003 1.173a5.365 5.365 0 01-1.358 0 .48.48 0 00-.276.048 2.438 2.438 0 00-1.001.948 6.241 6.241 0 010-.94.48.48 0 00-.293-.48 6.498 6.498 0 01-.85-.437c.281-.267.673-.624 1.126-1.006z" fill="#0080F7"/></svg>