<svg width="50" height="50" fill="none" xmlns="http://www.w3.org/2000/svg"><path d="M24.414 12.94a.732.732 0 000-1.465h-9.666a.732.732 0 100 1.465h9.666zm-13.718 4.248c0 .404.328.732.732.732h16.306a.732.732 0 100-1.465H11.428a.732.732 0 00-.732.733zm.732 4.15h16.306a.732.732 0 100-1.465H11.428a.732.732 0 000 1.465zm0 6.836h5.564a.732.732 0 100-1.465h-5.564a.732.732 0 100 1.465z" fill="#0080F7"/><path d="M44.383 32.664a.732.732 0 00.733-.732V28.64c0-.45-.229-.86-.611-1.097l-3.523-2.182V1.025C40.982.46 40.522 0 39.957 0H12.612c-.565 0-1.025.46-1.025 1.025v2.327H9.261c-.566 0-1.026.46-1.026 1.025v2.326H5.91c-.565 0-1.025.46-1.025 1.026v37.399c0 .565.46 1.025 1.025 1.025h5.419a.732.732 0 100-1.465h-4.98V8.168h26.466v13.474l-4.452 2.757a.732.732 0 00-.628-1.108H11.428a.732.732 0 100 1.465h16.306c.02 0 .038-.002.057-.003l-3.158 1.956h-5.297a.732.732 0 000 1.465h3.427a1.294 1.294 0 00-.088.466v1.487H11.428a.732.732 0 100 1.465h11.247v1.953H11.428a.732.732 0 000 1.465h11.247v1.726c0 .076.002.152.003.227h-11.25a.732.732 0 100 1.465h11.41a8.878 8.878 0 002.962 5.076l1.39 1.184H14.745a.732.732 0 100 1.465h14.162l4.15 3.537a1.287 1.287 0 001.675 0l7.258-6.186a8.879 8.879 0 003.125-6.768V35.35a.732.732 0 10-1.465 0v1.386c0 2.18-.951 4.24-2.61 5.653l-7.145 6.09-7.146-6.09a7.417 7.417 0 01-2.61-5.653v-7.999l9.755-6.042 9.756 6.042v3.195c0 .404.328.732.732.732zM34.28 21.258V7.728c0-.565-.46-1.025-1.026-1.025H9.7V4.816h26.466v5.145a.732.732 0 001.465 0V4.377c0-.565-.46-1.025-1.026-1.025H13.052V1.465h26.465v22.989l-1.886-1.169V13.38a.732.732 0 00-1.465 0v8.999l-1.59-.985a1.299 1.299 0 00-.297-.135z" fill="#0080F7"/><path d="M27.186 34.251c0 3.7 3.01 6.709 6.71 6.709a6.716 6.716 0 006.708-6.709c0-3.7-3.01-6.709-6.709-6.709s-6.709 3.01-6.709 6.709zm11.953 0a5.25 5.25 0 01-5.244 5.244 5.25 5.25 0 01-5.244-5.244 5.25 5.25 0 015.244-5.244 5.25 5.25 0 015.244 5.244z" fill="#0080F7"/><path d="M32.391 33.528a.732.732 0 00-1.035 1.036l1.767 1.767a.73.73 0 001.036 0l2.74-2.74a.732.732 0 00-1.037-1.035l-2.22 2.222-1.25-1.25z" fill="#0080F7"/></svg>