<svg width="50" height="50" fill="none" xmlns="http://www.w3.org/2000/svg"><g clip-path="url(#clip0_0_8077)" fill="#0080F7"><path d="M4.733 25.667v4.299c0 1.151.937 2.088 2.09 2.088h9.99v.826a2.263 2.263 0 002.26 2.26h4.218a.732.732 0 100-1.464h-4.218a.796.796 0 01-.796-.796v-4.843c0-3.726 2.989-6.771 6.632-6.82 3.68-.051 6.814 2.948 6.814 6.722v4.941a.796.796 0 01-.796.796H26.71a.732.732 0 000 1.465h4.218a2.263 2.263 0 002.26-2.26v-.827h9.99a2.091 2.091 0 002.09-2.088V25.58c0-3.042-1.858-5.64-4.471-6.76a5.183 5.183 0 001.858-2.205.732.732 0 10-1.338-.595 3.723 3.723 0 01-3.399 2.211 3.722 3.722 0 01-3.718-3.718 3.722 3.722 0 013.718-3.717c1.544 0 2.904.93 3.465 2.37a.733.733 0 001.365-.533 5.151 5.151 0 00-4.83-3.302 5.15 5.15 0 00-2.441.612 7.223 7.223 0 00-1.123-.613A5.101 5.101 0 0036.6 5.103 5.108 5.108 0 0031.498 0a5.108 5.108 0 00-5.103 5.103c0 1.76.896 3.314 2.255 4.232-.507.22-.989.5-1.436.833A5.714 5.714 0 0025 9.724a5.72 5.72 0 00-2.166.425 7.236 7.236 0 00-1.422-.815 5.102 5.102 0 002.253-4.231A5.108 5.108 0 0018.562.001a5.108 5.108 0 00-5.102 5.102c0 1.758.894 3.312 2.251 4.23a7.155 7.155 0 00-1.147.632 5.15 5.15 0 00-2.481-.634A5.188 5.188 0 006.9 14.513c0 1.797.92 3.383 2.313 4.313a7.472 7.472 0 00-4.48 6.84zm33.268-5.97c3.2.046 5.8 2.67 5.8 5.883v4.386c0 .343-.28.623-.623.623h-9.99v-2.65a8.185 8.185 0 00-.951-3.823c.648-2.441 2.771-4.399 5.764-4.418zM27.86 5.104a3.642 3.642 0 013.637-3.638 3.642 3.642 0 013.637 3.638 3.642 3.642 0 01-3.637 3.637 3.642 3.642 0 01-3.638-3.637zm3.559 5.102a5.664 5.664 0 012.792.684 5.19 5.19 0 00-1.477 3.624c0 1.772.907 3.377 2.31 4.312a7.431 7.431 0 00-3.829 3.8 8.28 8.28 0 00-3.169-2.285 5.731 5.731 0 002.683-5.288 5.73 5.73 0 00-2.123-4.055 5.694 5.694 0 012.813-.792zM25 11.19a4.287 4.287 0 014.281 4.281c0 2.36-1.92 4.28-4.279 4.282h-.006a4.286 4.286 0 01-4.277-4.282 4.288 4.288 0 014.28-4.281zm-3.577-.217a5.733 5.733 0 00-2.17 4.498 5.751 5.751 0 002.7 4.87 8.105 8.105 0 00-3.145 2.28 7.385 7.385 0 00-3.847-3.799 5.203 5.203 0 002.305-4.308 5.201 5.201 0 00-1.454-3.598 5.629 5.629 0 012.672-.71 5.728 5.728 0 012.939.767zm-6.498-5.87a3.642 3.642 0 013.637-3.637A3.642 3.642 0 0122.2 5.103a3.642 3.642 0 01-3.638 3.637 3.642 3.642 0 01-3.637-3.637zm-6.56 9.411a3.722 3.722 0 013.718-3.717 3.722 3.722 0 013.718 3.717 3.72 3.72 0 01-3.738 3.717 3.722 3.722 0 01-3.698-3.717zm3.638 5.183c2.696-.039 5.112 1.806 5.782 4.434a8.375 8.375 0 00-.973 3.907v2.552h-9.99a.625.625 0 01-.624-.623v-4.3c0-3.249 2.604-5.927 5.805-5.97zM30.691 44.28a1.8 1.8 0 00.458-1.857 1.8 1.8 0 00-1.461-1.232l-1.937-.282a.346.346 0 01-.26-.189l-.867-1.755A1.8 1.8 0 0025 37.955a1.8 1.8 0 00-1.623 1.01l-.867 1.755a.346.346 0 01-.26.19l-1.937.28a1.8 1.8 0 00-1.462 1.233 1.8 1.8 0 00.458 1.856l1.402 1.366c.082.08.119.194.1.307l-.331 1.929a1.8 1.8 0 00.72 1.77 1.8 1.8 0 001.907.139l1.732-.911a.346.346 0 01.322 0l1.733.91a1.8 1.8 0 001.907-.137 1.8 1.8 0 00.72-1.771l-.33-1.93a.346.346 0 01.099-.306l1.401-1.366zm-2.424.316a1.81 1.81 0 00-.52 1.603l.33 1.93a.337.337 0 01-.137.338.337.337 0 01-.364.026l-1.733-.91a1.81 1.81 0 00-1.685 0l-1.733.91a.337.337 0 01-.364-.026.337.337 0 01-.137-.339l.33-1.929a1.811 1.811 0 00-.52-1.603l-1.402-1.366a.337.337 0 01-.087-.354.337.337 0 01.279-.236l1.937-.281a1.81 1.81 0 001.363-.99l.866-1.756a.337.337 0 01.31-.193c.065 0 .225.02.31.193l.867 1.755a1.81 1.81 0 001.363.99l1.937.282c.192.028.26.174.28.236.02.061.051.22-.088.355l-1.402 1.365zm13.255-4.595a1.518 1.518 0 00-1.233-1.04l-1.43-.207a.063.063 0 01-.047-.035l-.639-1.295a1.519 1.519 0 00-1.37-.851c-.586 0-1.11.326-1.37.851l-.639 1.295a.063.063 0 01-.047.035l-1.43.207a1.519 1.519 0 00-1.233 1.04 1.518 1.518 0 00.387 1.567l1.034 1.007a.063.063 0 01.018.056l-.244 1.423c-.1.578.134 1.15.608 1.495.474.344 1.09.389 1.609.116l1.278-.672c.018-.01.04-.01.059 0l1.278.672a1.518 1.518 0 001.609-.116 1.52 1.52 0 00.608-1.495l-.244-1.423a.062.062 0 01.018-.056l1.034-1.007A1.52 1.52 0 0041.522 40zm-1.41.517l-1.033 1.008a1.53 1.53 0 00-.44 1.353l.245 1.423c.002.014.006.038-.026.062-.031.022-.053.011-.066.004l-1.278-.672a1.527 1.527 0 00-1.422 0l-1.278.672c-.013.007-.035.019-.066-.005-.032-.023-.028-.047-.026-.061l.245-1.423a1.528 1.528 0 00-.44-1.353l-1.034-1.008c-.01-.01-.028-.027-.016-.064.012-.038.037-.041.051-.043l1.429-.208a1.528 1.528 0 001.15-.836l.64-1.294c.006-.014.017-.035.056-.035.04 0 .05.022.056.035l.64 1.294c.222.451.652.764 1.15.836l1.429.208c.014.002.039.005.05.043.013.037-.005.054-.015.064zm9.467-2.923c.382-.372.517-.92.352-1.428a1.384 1.384 0 00-1.124-.948l-1.15-.166-.513-1.042a1.384 1.384 0 00-1.25-.776c-.534 0-1.012.297-1.248.776l-.514 1.041-1.15.167c-.528.077-.959.44-1.124.948a1.384 1.384 0 00.353 1.428l.831.81-.196 1.145c-.09.526.122 1.048.554 1.362.433.315.995.355 1.467.106l1.028-.54 1.027.54a1.384 1.384 0 001.467-.106c.432-.314.645-.836.554-1.362l-.196-1.144.832-.81zm-1.882-.212c-.328.32-.478.781-.4 1.233l.178 1.038-.932-.49a1.392 1.392 0 00-1.297 0l-.932.49.178-1.038a1.393 1.393 0 00-.4-1.233l-.755-.735 1.043-.151a1.392 1.392 0 001.048-.762l.467-.945.465.945c.203.41.596.696 1.05.762l1.041.151-.754.735zM8.865 41.567l1.034 1.008a.063.063 0 01.018.056l-.244 1.423c-.1.577.134 1.15.608 1.494.474.345 1.09.39 1.609.117l1.278-.672c.018-.01.04-.01.059 0l1.278.672a1.518 1.518 0 001.609-.117c.474-.344.707-.917.608-1.494l-.245-1.423a.063.063 0 01.019-.056l1.034-1.008c.42-.409.567-1.009.386-1.566a1.518 1.518 0 00-1.233-1.04l-1.429-.207a.063.063 0 01-.047-.035l-.64-1.295a1.519 1.519 0 00-1.37-.852 1.52 1.52 0 00-1.37.852l-.639 1.295a.064.064 0 01-.047.035l-1.43.207a1.519 1.519 0 00-1.232 1.04 1.517 1.517 0 00.386 1.566zm1.006-1.113c.012-.038.037-.041.051-.043l1.429-.208a1.528 1.528 0 001.15-.836l.64-1.294c.006-.014.017-.035.056-.035.04 0 .05.022.057.035l.639 1.294c.222.451.652.764 1.15.836l1.429.208c.014.002.039.005.05.043.013.037-.005.054-.015.064l-1.034 1.008a1.53 1.53 0 00-.44 1.353l.244 1.423c.003.014.007.038-.025.061-.031.023-.053.012-.066.005l-1.278-.672a1.529 1.529 0 00-1.422 0l-1.278.672c-.013.007-.035.019-.067-.005-.031-.023-.027-.047-.025-.061l.244-1.423a1.528 1.528 0 00-.44-1.353l-1.033-1.008c-.01-.01-.028-.027-.016-.064zm-5.765-7.219c-.534 0-1.013.297-1.25.776l-.513 1.041-1.15.167c-.528.077-.959.44-1.124.948a1.385 1.385 0 00.353 1.428l.831.81-.196 1.145c-.09.526.122 1.049.554 1.362.432.314.994.355 1.467.106l1.027-.54 1.028.54a1.384 1.384 0 001.467-.106c.432-.313.644-.836.554-1.362l-.196-1.144.831-.81c.383-.373.518-.92.353-1.429a1.384 1.384 0 00-1.125-.948l-1.149-.166-.514-1.042a1.384 1.384 0 00-1.248-.776zm1.515 3.262l1.042.151-.754.735c-.329.32-.478.781-.401 1.233l.178 1.038-.932-.49a1.394 1.394 0 00-1.297 0l-.932.49.178-1.038a1.392 1.392 0 00-.4-1.233l-.755-.735 1.043-.151a1.393 1.393 0 001.048-.762l.466-.945.466.945a1.4 1.4 0 001.05.762z"/></g><defs><clipPath id="clip0_0_8077"><path fill="#fff" d="M0 0h50v50H0z"/></clipPath></defs></svg>