<svg width="179" height="60" fill="none" xmlns="http://www.w3.org/2000/svg"><path d="M74.223 24.305h-.38c-.686 0-1.066.152-1.066.913v4.416c-2.056.838-4.188.838-4.188-1.142v-3.274c0-.761-.38-.913-1.066-.913h-.38c-.762 0-1.067.152-1.067.913v3.274c0 3.427 3.198 4.264 6.7 3.046v3.122c0 .761.381.914 1.067.914h.38c.686 0 1.066-.153 1.066-.914v-9.442c0-.761-.457-.913-1.066-.913zm11.727 3.959v6.396c0 .761.38.914 1.065.914h.305c.761 0 1.142-.153 1.142-.914v-9.442c0-.761-.38-.913-1.142-.913h-.152c-.686 0-.838.076-1.371.837L81 31.614v-6.396c0-.761-.38-.913-1.066-.913h-.38c-.686 0-1.067.152-1.067.913v9.366c0 .761.381.913 1.066.913h.153c.685 0 .837-.076 1.37-.837l4.873-6.396zm11.268 7.386c3.046 0 4.417-1.6 4.417-2.817 0-.914-.533-1.295-1.219-1.295-.152 0-.228.076-.304.152-.381 1.066-1.447 1.675-2.741 1.675-1.904 0-3.198-1.446-3.198-3.502s1.37-3.503 3.198-3.503c1.142 0 2.132.457 2.665 1.447.076.152.228.229.456.229.533 0 1.143-.534 1.143-1.371 0-.914-1.295-2.513-4.264-2.513-3.35 0-5.711 2.437-5.711 5.787-.076 3.35 2.208 5.71 5.558 5.71zm15.457-11.27h-7.614c-.762 0-1.142.153-1.142.838v.381c0 .685.38.914 1.142.914h2.513v8.07c0 .762.304.915 1.066.915h.38c.762 0 1.142-.153 1.142-.914v-7.995h2.361c.761 0 1.142-.229 1.218-.914l.076-.38c0-.686-.38-.914-1.142-.914zm8.376-.38c-3.274 0-5.711 2.436-5.711 5.787 0 3.35 2.36 5.863 5.711 5.863 3.35 0 5.71-2.437 5.71-5.863 0-3.427-2.36-5.787-5.71-5.787zm0 9.365c-1.904 0-3.198-1.522-3.198-3.578 0-2.132 1.294-3.503 3.198-3.503 1.903 0 3.198 1.447 3.198 3.503.076 2.132-1.219 3.578-3.198 3.578zm16.294-7.385l.152-.762c.153-.609-.304-.761-1.066-.761h-5.406c-.837 0-1.294.304-1.294 1.142v8.985c0 .685.381.99 1.066.99h.381c.761 0 1.142-.153 1.142-.914v-8.071h3.807c.685 0 1.142-.152 1.218-.61zm5.102 8.604v-2.741h1.675c3.045 0 4.568-1.295 4.568-3.731 0-2.437-1.599-3.731-4.568-3.731h-2.894c-.837 0-1.294.304-1.294 1.142v9.06c0 .762.381.915 1.066.915h.381c.761 0 1.066-.153 1.066-.914zm0-8.224h1.599c1.37 0 2.132.61 2.132 1.828 0 1.142-.762 1.827-2.132 1.827h-1.599V26.36zm14.314-1.37c-.304-.685-.456-.762-1.599-.762-1.142 0-1.37 0-1.599.762l-3.731 9.67c-.228.609.533.914 1.143.914.609 0 1.142-.229 1.37-.914l.762-1.98h4.187l.762 1.98c.304.761.761.914 1.37.914.609 0 1.447-.305 1.142-.914l-3.807-9.67zm-3.121 5.787l1.522-4.036 1.523 4.036h-3.045zm20.177 2.513h-.228v-7.996c0-.761-.381-.913-1.142-.913h-5.711c-.685 0-1.066.152-1.066.913 0 3.731-.838 6.016-1.98 7.995h-.152c-.761 0-1.142.153-1.142.914v3.046c0 .761.381.837 1.066.837h.381c.685 0 1.066-.076 1.066-.837V35.42h7.538v1.828c0 .761.38.837.99.837h.38c.686 0 1.066-.076 1.066-.837v-3.046c.076-.761-.304-.914-1.066-.914zm-2.741 0h-4.721c.99-1.828 1.675-3.58 1.752-6.701h2.969v6.7zM69.35 41.284h-.533l-2.36 2.36v-2.36H66v4.036h.457v-1.066l.914-.914 1.522 1.98h.533l-1.75-2.285 1.674-1.75zm2.056.762c0 2.74-.533 2.893-.838 2.893-.152 0-.304 0-.38-.076l-.076.38c.152.077.38.077.533.077.609 0 1.218-.38 1.218-3.198v-.457h1.675v3.655h.457v-4.036h-2.589v.762zm4.797 2.589v-3.35h-.457v4.035h.457l2.36-3.35v3.35h.457v-4.036h-.457l-2.36 3.35zm7.31-1.6h-2.36v-1.75h-.458v4.035h.457v-1.828h2.36v1.828h.457v-4.036h-.456v1.752zm2.589 1.6v-3.35h-.457v4.035h.457l2.36-3.35v3.35h.457v-4.036h-.38l-2.438 3.35zm7.309-1.6h-2.284v-1.75h-.457v4.035h.457v-1.828h2.284v1.828h.457v-4.036h-.457v1.752zm2.209 2.285H96v-3.655h2.132v-.38h-2.513v4.035zm5.482-4.112c-1.219 0-2.056.99-2.056 2.056 0 1.142.837 2.056 2.056 2.056 1.218 0 2.055-.99 2.055-2.056s-.837-2.056-2.055-2.056zm0 3.731c-.914 0-1.6-.761-1.6-1.675s.686-1.675 1.6-1.675c.913 0 1.599.761 1.599 1.675s-.686 1.675-1.599 1.675zm6.015-1.751c.304-.153.609-.38.609-.914 0-.305-.076-.457-.229-.685-.228-.229-.609-.38-1.066-.38h-1.675v4.11h1.752c.913 0 1.446-.38 1.446-1.065 0-.61-.38-.914-.837-1.066zm-1.98-1.523h1.218c.609 0 .914.228.914.685 0 .457-.381.762-.914.762h-1.218v-1.447zm1.371 3.198h-1.371v-1.447h1.294c.686 0 1.066.229 1.066.686 0 .533-.38.76-.989.76zm4.264-3.579l-1.828 4.036h.457l.457-1.066h2.208l.457 1.066h.457l-1.828-4.036h-.38zm-.686 2.513l.914-2.056.914 2.056h-1.828zm4.493-2.132c-.229.228-.305.457-.305.837 0 .686.457 1.066 1.066 1.219l-1.218 1.599h.533l1.218-1.523h1.142v1.523h.457v-4.036h-1.751c-.533 0-.914.153-1.142.381zm2.436 0v1.675h-1.218c-.609 0-1.066-.305-1.066-.838 0-.533.381-.837 1.066-.837h1.218zm7.767-.381h-.609l-2.285 2.36v-2.36h-.457v4.036h.457v-1.066l.838-.914 1.599 1.98h.533l-1.751-2.285 1.675-1.75zm3.045-.076c-1.218 0-2.055.99-2.055 2.056 0 1.142.837 2.056 2.055 2.056 1.219 0 2.056-.99 2.056-2.056s-.837-2.056-2.056-2.056zm0 3.731c-.913 0-1.599-.761-1.599-1.675s.686-1.675 1.599-1.675c.914 0 1.599.761 1.599 1.675s-.685 1.675-1.599 1.675zm5.559-1.447l-1.523-2.208h-.457v4.036h.457v-3.274l1.447 2.132h.076l1.446-2.132v3.274h.457v-4.036h-.457l-1.446 2.208zm3.578 1.828h.457v-3.655h2.285v3.655h.456v-4.036h-3.198v4.036zm6.396-4.036l-1.827 4.036h.457l.457-1.066h2.208l.457 1.066h.456l-1.827-4.036h-.381zm-.761 2.513l.914-2.056.913 2.056h-1.827zm7.157-.762h-2.36v-1.75h-.457v4.035h.457v-1.828h2.36v1.828h.457v-4.036h-.457v1.752zm2.589 1.6v-3.35h-.457v4.035h.457l2.361-3.35v3.35h.456v-4.036h-.38l-2.437 3.35zm4.721-2.97c-.228.228-.305.457-.305.837 0 .686.457 1.066 1.066 1.219l-1.294 1.599h.533l1.218-1.523h1.142v1.523h.457v-4.036h-1.751c-.457 0-.838.153-1.066.381zm2.437 0v1.675h-1.219c-.609 0-1.066-.305-1.066-.838 0-.533.381-.837 1.066-.837h1.219z" fill="#0B111F"/><path d="M28.934 0l-1.751 8.147 1.75-1.294V0zm0 7.843l-4.416 3.274v1.827l4.416-3.198V7.843zM43.096 29.01l-5.33 3.807v2.97l5.33-3.807v-2.97zm0-4.112l-5.33 3.884v2.893l5.33-3.807v-2.97zM37.767 39.06c1.446-.456 2.893-.76 4.416-.76h.913v-5.254l-5.33 3.883v2.132zm5.329-18.273l-5.33 3.883v2.97l5.33-3.884v-2.97zm7.691 16.751L45 33.35v1.142l5.787 4.188v-1.142zm0-4.112L45 29.24v1.142l5.787 4.188v-1.143zm0-4.111L45 25.127v1.142l5.787 4.188v-1.142zM14.924 32.36l-7.69 5.635v2.97l7.69-5.635v-2.97zm0 16.447l-2.665 1.98a7.841 7.841 0 002.665.457v-2.437zm0-8.223L7.767 45.76c.304.762.609 1.523 1.066 2.132l6.015-4.416v-2.893h.076zm0-16.371l-7.69 5.559v2.97l7.69-5.56v-2.969zm0 12.259l-7.69 5.635v1.75c.076.305.152.686.228.99l7.462-5.405v-2.97zm0 8.223l-5.482 3.96.152.152c.533.61 1.066 1.066 1.751 1.447L15 47.589v-2.894h-.076zm0-16.37l-7.69 5.558v2.97l7.69-5.635v-2.893zm3.731 22.005l-1.828-1.294v1.142l.762.533a4.41 4.41 0 001.066-.381zm1.447-.685c.304-.153.609-.305.99-.533.076-.077.228-.153.304-.153v-.685l.076-2.893v-1.142l.076-2.894v-1.142l.076-2.893v-1.143l.077-2.893v-1.142l.076-2.893.228-10.965.229 11.345.076 2.97v1.142l.076 2.97v1.142l.076 2.97v1.141l.076 2.97v1.142l.076 2.132c.457-.305.838-.533 1.295-.838l.609-31.066.609 30.229c.457-.305.914-.685 1.447-.99l.456-31.066.534 30.305 1.37-.914V10.812l-8.832 6.396v13.706l-3.274-2.36v1.141l3.274 2.36v2.97l-3.274-2.36v1.142l3.274 2.36v2.97l-3.274-2.36v1.142l3.274 2.36v2.97l-3.274-2.36v1.142l3.274 2.36v2.97l-3.198-2.437v1.142l3.274 2.36v1.219h-.076zM36.167 33.96v-1.143l-.076-2.893v-1.142l-.076-2.894-.152-7.766-.152 7.995-.076 2.97v1.141l-.077 2.97v1.142l-.076 2.97v2.512c.305-.152.533-.228.838-.38V36.7l-.153-2.74zM33.35 16.294l-.457 24.975c.305-.152.61-.38.914-.533l-.457-24.442zm-2.512-1.827l-.533 28.401a7.01 7.01 0 01.99-.61l-.457-27.791zM14.924 21.32l-3.96 2.893v1.675l3.96-2.893V21.32zm28.172-3.122l-3.274 2.36v1.37l3.274-2.36v-1.37zm-5.406.076c.305-3.807.533-4.035 4.34-4.34-3.807-.305-4.035-.533-4.34-4.34-.304 3.807-.533 4.035-4.34 4.34 3.807.228 4.036.533 4.34 4.34zM5.787 30.61c.304-3.884.609-4.113 4.416-4.417-3.883-.305-4.112-.61-4.416-4.416-.305 3.883-.61 4.111-4.416 4.416 3.807.304 4.035.533 4.416 4.416zm35.634-18.656c.229-2.512.381-2.665 2.894-2.893-2.513-.229-2.665-.38-2.894-2.893-.228 2.512-.38 2.664-2.893 2.893 2.513.152 2.741.38 2.893 2.893zM6.396 37.31C0 39.442-.838 44.924.609 44.924c2.36 0 1.37-5.254 5.787-7.614zm9.137 22.233c11.498 2.741 20.634-7.995 29.01-6.7-8.68-3.808-16.827 6.7-29.01 6.7zM50.94 41.954c2.283 1.523 2.283 6.244 3.654 6.015 1.066-.152 1.142-3.502-3.655-6.015zm-4.95 10.508c-.229 2.513-.38 2.665-2.894 2.893 2.513.229 2.666.381 2.894 2.894.228-2.513.38-2.665 2.893-2.894-2.512-.152-2.665-.38-2.893-2.893z" fill="#0080F7"/><path d="M50.71 49.797l-.152-.076c1.066-7.386-4.492-9.975-8.3-9.975-9.745 0-18.806 12.487-27.334 12.487-.99 0-1.904-.152-2.741-.38 1.599 1.37 3.426 1.98 4.873 2.208-9.061.076-11.65-7.234-11.65-12.944v-.61c0-.532.076-1.065.152-1.522-6.167 11.117.838 19.568 9.29 19.568 10.05 0 15.609-6.167 22.233-7.386-1.675-1.218-5.254-.837-7.386.153 10.813-6.7 20.33-.838 21.244 5.101C53.376 52.005 53.3 47.97 51.7 45c.077 1.599-.304 3.426-.99 4.797zm-6.471-8.985c-1.295.305-8.985.99-15.153 5.863 0 .076 8.909-7.842 15.153-5.863z" fill="#0080F7"/></svg>