<svg width="20" height="20" fill="none" xmlns="http://www.w3.org/2000/svg"><path d="M5.149 12.906l.559-.5L5.7 12.4l-.007-.007-.545.514zm9.702 0l-.545-.514-.007.007-.007.008.56.5zM10 18.334l-.56.5a.75.75 0 001.12 0l-.56-.5zm-5.917-10A5.917 5.917 0 0110 2.417v-1.5a7.417 7.417 0 00-7.417 7.417h1.5zM10 2.417a5.917 5.917 0 015.917 5.917h1.5A7.417 7.417 0 0010 .917v1.5zm-4.306 9.975a5.894 5.894 0 01-1.61-4.058h-1.5c0 1.969.768 3.76 2.019 5.087l1.091-1.03zm10.223-4.058a5.893 5.893 0 01-1.611 4.058l1.091 1.029a7.394 7.394 0 002.02-5.087h-1.5zm-5.358 10.5l4.852-5.428-1.119-1-4.851 5.428 1.118 1zm0-1l-4.851-5.428-1.118 1 4.85 5.428 1.12-1zm1.191-9.5a1.75 1.75 0 01-1.75 1.75v1.5a3.25 3.25 0 003.25-3.25h-1.5zM10 10.084a1.75 1.75 0 01-1.75-1.75h-1.5a3.25 3.25 0 003.25 3.25v-1.5zm-1.75-1.75c0-.967.784-1.75 1.75-1.75v-1.5a3.25 3.25 0 00-3.25 3.25h1.5zM10 6.584c.966 0 1.75.783 1.75 1.75h1.5A3.25 3.25 0 0010 5.084v1.5z" fill="#0B111F"/></svg>