<svg width="40" height="41" fill="none" xmlns="http://www.w3.org/2000/svg"><g clip-path="url(#clip0_0_7792)"><path d="M0 1h40v40H0V1z" fill="#19AA1E"/><path fill-rule="evenodd" clip-rule="evenodd" d="M0 .5h40v13.124L0 7.374V.5z" fill="#FFB919"/><path fill-rule="evenodd" clip-rule="evenodd" d="M0 36.124l40-6.25V40.5H0v-4.375z" fill="#82D714"/><path fill-rule="evenodd" clip-rule="evenodd" d="M0 6.584l13.962 2.182C15.7 7.666 17.768 7.062 20 7.062c3.091 0 5.869 1.157 7.89 3.189.255.257.495.525.722.803L40 12.834v1.581l-10.233-1.6a10.268 10.268 0 011.17 4.744c0 2.143-.48 4.28-1.47 6.425l-.03.066-.422.901h-.993c-2.056 0-3.418.615-4.31 1.704-.7.855-1.104 2.009-1.24 3.267l-.005.038-.02.202-.008.087-.017.17a32.06 32.06 0 00-.104 1.427L40 29.083v1.582l-40 6.25v-1.582l17.701-2.765-.007-.356-.002-.099-.003-.052-.002-.079c-.016-.43-.056-.982-.119-1.65l-.012-.128-.022-.22c-.126-1.265-.525-2.432-1.224-3.3-.881-1.096-2.23-1.72-4.27-1.733h-1.057l-.42-.901c-1.011-2.168-1.5-4.326-1.5-6.49 0-2.723 1.103-5.355 3.047-7.31l.17-.165L0 8.165v-1.58z" fill="#fff"/><path fill-rule="evenodd" clip-rule="evenodd" d="M20 8.624c5.584 0 9.374 4.298 9.374 8.935 0 1.862-.406 3.798-1.354 5.83-5.494 0-6.85 3.934-7.107 6.411l-.017.164a31.248 31.248 0 00-.15 2.127l-1.488.233v-.049a28.49 28.49 0 00-.16-2.357l-.004-.044c-.238-2.471-1.565-6.485-7.115-6.485-.948-2.032-1.354-3.968-1.354-5.83 0-4.637 3.79-8.935 9.374-8.935z" fill="#0073FA"/></g><defs><clipPath id="clip0_0_7792"><rect y=".5" width="40" height="40" rx="10" fill="#fff"/></clipPath></defs></svg>